<?xml version="1.0" encoding="UTF-8" standalone="no"?>
<!-- Created with Inkscape (http://www.inkscape.org/) -->

<svg
   xmlns:dc="http://purl.org/dc/elements/1.1/"
   xmlns:cc="http://creativecommons.org/ns#"
   xmlns:rdf="http://www.w3.org/1999/02/22-rdf-syntax-ns#"
   xmlns:svg="http://www.w3.org/2000/svg"
   xmlns="http://www.w3.org/2000/svg"
   xmlns:sodipodi="http://sodipodi.sourceforge.net/DTD/sodipodi-0.dtd"
   xmlns:inkscape="http://www.inkscape.org/namespaces/inkscape"
   width="350"
   height="350"
   id="svg2"
   version="1.1"
   inkscape:version="0.91 r13725"
   sodipodi:docname="explorer.svg"
   inkscape:export-filename="/src/marketing/datalayer/logo/studio/studio.png"
   inkscape:export-xdpi="90"
   inkscape:export-ydpi="90">
  <defs
     id="defs4" />
  <sodipodi:namedview
     id="base"
     pagecolor="#ffffff"
     bordercolor="#666666"
     borderopacity="1.0"
     inkscape:pageopacity="0.0"
     inkscape:pageshadow="2"
     inkscape:zoom="0.91572297"
     inkscape:cx="-25.30303"
     inkscape:cy="161.7778"
     inkscape:document-units="px"
     inkscape:current-layer="layer1"
     showgrid="false"
     inkscape:object-paths="true"
     inkscape:snap-intersection-paths="true"
     inkscape:object-nodes="true"
     inkscape:snap-global="true"
     fit-margin-top="0"
     fit-margin-left="0"
     fit-margin-right="0"
     fit-margin-bottom="0"
     inkscape:window-width="1440"
     inkscape:window-height="819"
     inkscape:window-x="0"
     inkscape:window-y="24"
     inkscape:window-maximized="1">
    <inkscape:grid
       type="xygrid"
       id="grid3074"
       empspacing="5"
       visible="true"
       enabled="true"
       snapvisiblegridlinesonly="true" />
  </sodipodi:namedview>
  <metadata
     id="metadata7">
    <rdf:RDF>
      <cc:Work
         rdf:about="">
        <dc:format>image/svg+xml</dc:format>
        <dc:type
           rdf:resource="http://purl.org/dc/dcmitype/StillImage" />
        <dc:title />
      </cc:Work>
    </rdf:RDF>
  </metadata>
  <g
     inkscape:label="Layer 1"
     inkscape:groupmode="layer"
     id="layer1"
     transform="translate(1794.876,538.79141)">
    <g
       transform="matrix(5.6391093,0,0,5.6494609,-4681.4632,-4049.0557)"
       id="g5932">
      <g
         id="g5787"
         transform="matrix(0.22733622,0,0,0.22691967,553.11814,673.68536)"
         style="fill:#008080;fill-opacity:1;stroke:#008080;stroke-opacity:1">
        <path
           style="opacity:1;fill:#008080;fill-opacity:1;fill-rule:nonzero;stroke:none;stroke-width:6;stroke-linecap:round;stroke-linejoin:round;stroke-miterlimit:4;stroke-dasharray:none;stroke-dashoffset:0;stroke-opacity:1"
           d="m -108.70141,15.968281 c -3.07938,-0.51404 -5.30153,-2.27291 -6.74202,-5.33641 l -0.6603,-1.4042902 -0.1736,-43.8182298 c -0.1699,-42.884904 -0.16639,-43.860761 0.16475,-45.81474 0.93982,-5.54561 2.29785,-8.987188 4.35962,-11.048344 1.69843,-1.697931 3.47489,-2.278471 7.76572,-2.537808 l 2.04875,-0.123828 0.0907,0.766214 c 0.0838,0.708095 1.01169,54.078496 0.9967,57.332486 -0.004,0.93004 0.0616,1.44817 0.18419,1.44817 0.24914,0 18.48384,-13.12726 18.56786,-13.3671 0.03529,-0.10085 1.849411,-10.426497 4.054555,-22.941911 3.286057,-18.650189 7.997445,-42.02923 5.974131,-30.89757 0.184243,0.0398 13.579746,0.0881 13.181632,5.871033 0.01044,0.0073 -2.43676,15.80606 -3.617385,25.701862 -1.180614,9.895816 -2.130989,18.011466 -2.111935,18.034796 0.01911,0.0233 2.456241,-1.12204 5.415956,-2.54527 l 5.381308,-2.58768 0.0052,-4.03731 0.0052,-4.037315 3.203904,-1.272631 3.203915,-1.272632 5.899808,0 c 4.924334,-0.364731 -1.046868,29.235988 -1.111006,34.750878 l -1.457943,-1.32166 1.819775,-1.48691 c 4.423884,-3.6147 -13.429957,-5.01148 -13.617811,-5.24295 l -0.341552,-0.42087 -22.981319,17.6397 -22.981313,17.6397098 -0.0878,11.13013 -0.0878,11.1301302 -1.31653,0.10872 c -1.87215,0.15458 -3.97523,0.13855 -5.03513,-0.0383 z"
           id="path5795"
           inkscape:connector-curvature="0"
           sodipodi:nodetypes="cscsssscccscsccscsccccccccsccccccccc" />
        <path
           inkscape:connector-curvature="0"
           id="path5797"
           d="m 23.431251,15.968281 c 3.07938,-0.51404 5.30153,-2.27291 6.74202,-5.33641 l 0.6603,-1.4042902 0.1736,-43.8182298 c 0.16989,-42.884904 0.16639,-43.860761 -0.16476,-45.81474 -0.93981,-5.54561 -2.29784,-8.987188 -4.35962,-11.048344 -1.69842,-1.697931 -3.47488,-2.278471 -7.76571,-2.537808 l -2.04875,-0.123828 -0.0907,0.766214 c -0.0838,0.708095 -1.01169,54.078496 -0.9967,57.332486 0.004,0.93004 -0.0616,1.44817 -0.18419,1.44817 -0.24914,0 -18.4838398,-13.12726 -18.5678598,-13.3671 -0.0353,-0.10085 -1.859861,-10.42466 -4.054552,-22.941911 -3.1559022,-17.999411 -5.4776422,-32.63528 -5.4776422,-32.63528 -0.184243,0.0398 -13.331502,6.542456 -13.429877,6.615765 -0.01044,0.0073 2.188516,16.799038 3.369141,26.69484 1.180614,9.895816 2.130988,18.011466 2.111935,18.034796 -0.01911,0.0233 -2.456242,-1.12204 -5.415957,-2.54527 l -5.381307,-2.58768 -0.0052,-4.03731 -0.0052,-4.037315 -3.203904,-1.272631 -3.203915,-1.272632 -1.950262,0 -1.950263,0 -0.113492,3.642358 c -0.23068,7.40352 -0.82664,23.52729 -0.774785,24.96478 l 0.05366,4.99762 2.744146,-3.94441 c 3.262579,-4.68961 10.270318,-2.72952 10.458173,-2.96099 l 0.341551,-0.42087 22.9813202,17.6397 22.9813098,17.6397098 0.0878,11.13013 0.0878,11.1301302 1.31652,0.10872 c 1.87215,0.15458 3.97523,0.13855 5.03513,-0.0383 z"
           style="opacity:1;fill:#008080;fill-opacity:1;fill-rule:nonzero;stroke:none;stroke-width:6;stroke-linecap:round;stroke-linejoin:round;stroke-miterlimit:4;stroke-dasharray:none;stroke-dashoffset:0;stroke-opacity:1"
           sodipodi:nodetypes="cscsssscccscsccscscccccccsccsccccccccc" />
      </g>
      <rect
         ry="0.016477499"
         rx="0.016507747"
         y="657.25299"
         x="540.16882"
         height="6.8205228"
         width="6.5977654"
         id="rect5858"
         style="opacity:1;fill:#008080;fill-opacity:1;fill-rule:nonzero;stroke:none;stroke-width:6;stroke-linecap:round;stroke-linejoin:round;stroke-miterlimit:4;stroke-dasharray:none;stroke-dashoffset:0;stroke-opacity:1" />
      <path
         inkscape:connector-curvature="0"
         id="path5860"
         d="m 540.23052,657.36601 2.14453,-0.9858 c 0.81284,-0.22107 1.50929,-0.1517 2.17275,0 l 2.18685,0.9858 z"
         style="fill:#008080;fill-opacity:1;fill-rule:evenodd;stroke:#008080;stroke-width:0.23711866px;stroke-linecap:butt;stroke-linejoin:miter;stroke-opacity:1"
         sodipodi:nodetypes="ccccc" />
      <path
         inkscape:connector-curvature="0"
         id="path5862"
         d="m 540.2023,664.11171 2.42671,3.60522 c 0.67583,0.2842 0.98879,0.28493 1.52374,0 l 2.59601,-3.60522 z"
         style="fill:#008080;fill-opacity:1;fill-rule:evenodd;stroke:#008080;stroke-width:0.23711866px;stroke-linecap:butt;stroke-linejoin:miter;stroke-opacity:1"
         sodipodi:nodetypes="ccccc" />
      <path
         sodipodi:nodetypes="cc"
         inkscape:connector-curvature="0"
         id="path5921"
         d="m 540.05276,656.85942 0.11463,8.04246"
         style="fill:#ffffff;fill-opacity:1;fill-rule:evenodd;stroke:#ffffff;stroke-width:0.48401612;stroke-linecap:butt;stroke-linejoin:miter;stroke-miterlimit:4;stroke-dasharray:none;stroke-opacity:1" />
      <path
         style="fill:#ffffff;fill-opacity:1;fill-rule:evenodd;stroke:#ffffff;stroke-width:0.48722503;stroke-linecap:butt;stroke-linejoin:miter;stroke-miterlimit:4;stroke-dasharray:none;stroke-opacity:1"
         d="m 546.71186,657.01858 -0.11455,8.15547"
         id="path5923"
         inkscape:connector-curvature="0"
         sodipodi:nodetypes="cc" />
      <path
         inkscape:connector-curvature="0"
         id="path5931"
         d="m 526.34979,655.63004 3.75758,-0.0829"
         style="fill:none;fill-opacity:1;fill-rule:evenodd;stroke:#ffffff;stroke-width:0.47423732;stroke-linecap:butt;stroke-linejoin:miter;stroke-miterlimit:4;stroke-dasharray:none;stroke-opacity:1" />
      <path
         style="fill:none;fill-opacity:1;fill-rule:evenodd;stroke:#ffffff;stroke-width:0.47423732;stroke-linecap:butt;stroke-linejoin:miter;stroke-miterlimit:4;stroke-dasharray:none;stroke-opacity:1"
         d="m 560.48641,655.63004 -3.75758,-0.0829"
         id="path5937"
         inkscape:connector-curvature="0" />
      <ellipse
         ry="13.940768"
         rx="13.966359"
         style="opacity:1;fill:#008080;fill-opacity:1;fill-rule:nonzero;stroke:#008080;stroke-width:1.49559712;stroke-linecap:round;stroke-linejoin:round;stroke-miterlimit:4;stroke-dasharray:none;stroke-dashoffset:0;stroke-opacity:1"
         id="path5912"
         cx="543.42566"
         cy="637.80463" />
      <path
         style="fill:none;fill-opacity:1;fill-rule:evenodd;stroke:#000000;stroke-width:0.23711866px;stroke-linecap:butt;stroke-linejoin:miter;stroke-opacity:0"
         d="m 540.20885,657.16121 0,7.1541"
         id="path5919"
         inkscape:connector-curvature="0" />
      <rect
         style="fill:none;fill-opacity:1;stroke:#008080;stroke-width:0.52725917;stroke-miterlimit:4;stroke-dasharray:none;stroke-opacity:1"
         id="rect5947"
         width="61.53928"
         height="61.426521"
         x="512.1507"
         y="621.60767"
         ry="75.767334"
         rx="75.906425" />
    </g>
  </g>
</svg>
