<?xml version="1.0" encoding="UTF-8" standalone="no"?>
<!-- Generator: Adobe Illustrator 15.1.0, SVG Export Plug-In . SVG Version: 6.00 Build 0)  -->

<svg
   xmlns:dc="http://purl.org/dc/elements/1.1/"
   xmlns:cc="http://creativecommons.org/ns#"
   xmlns:rdf="http://www.w3.org/1999/02/22-rdf-syntax-ns#"
   xmlns:svg="http://www.w3.org/2000/svg"
   xmlns="http://www.w3.org/2000/svg"
   xmlns:sodipodi="http://sodipodi.sourceforge.net/DTD/sodipodi-0.dtd"
   xmlns:inkscape="http://www.inkscape.org/namespaces/inkscape"
   version="1.1"
   id="Layer_1"
   x="0px"
   y="0px"
   width="792"
   height="792"
   viewBox="0 0 792 792"
   enable-background="new 0 0 792 612"
   xml:space="preserve"
   inkscape:version="0.91 r13725"
   sodipodi:docname="apache-hbase-square.svg"
   inkscape:export-filename="big_h_bitmap.png"
   inkscape:export-xdpi="90"
   inkscape:export-ydpi="90"><metadata
     id="metadata3693"><rdf:RDF><cc:Work
         rdf:about=""><dc:format>image/svg+xml</dc:format><dc:type
           rdf:resource="http://purl.org/dc/dcmitype/StillImage" /><dc:title /></cc:Work></rdf:RDF></metadata><defs
     id="defs3691" /><sodipodi:namedview
     pagecolor="#000000"
     bordercolor="#666666"
     borderopacity="1"
     objecttolerance="10"
     gridtolerance="10"
     guidetolerance="10"
     inkscape:pageopacity="0"
     inkscape:pageshadow="2"
     inkscape:window-width="1440"
     inkscape:window-height="856"
     id="namedview3689"
     showgrid="false"
     inkscape:zoom="0.12998238"
     inkscape:cx="-283.95234"
     inkscape:cy="-262.43489"
     inkscape:window-x="560"
     inkscape:window-y="24"
     inkscape:window-maximized="0"
     inkscape:current-layer="g3349" /><text
     xml:space="preserve"
     style="font-style:normal;font-variant:normal;font-weight:normal;font-stretch:normal;font-size:64.90126801px;line-height:125%;font-family:Bitsumishi;-inkscape-font-specification:Bitsumishi;text-align:start;letter-spacing:0px;word-spacing:0px;writing-mode:lr-tb;text-anchor:start;fill:#000000;fill-opacity:1;stroke:none"
     x="260.44272"
     y="61.342777"
     id="text3082"
     sodipodi:linespacing="125%"><tspan
       sodipodi:role="line"
       id="tspan3084"
       x="260.44272"
       y="61.342777" /></text>
<text
     xml:space="preserve"
     style="font-style:normal;font-variant:normal;font-weight:normal;font-stretch:normal;font-size:64.90126801px;line-height:125%;font-family:Bitsumishi;-inkscape-font-specification:Bitsumishi;text-align:start;letter-spacing:0px;word-spacing:0px;writing-mode:lr-tb;text-anchor:start;fill:#000000;fill-opacity:1;stroke:none"
     x="216.26314"
     y="63.972519"
     id="text3086"
     sodipodi:linespacing="125%"><tspan
       sodipodi:role="line"
       id="tspan3088"
       x="216.26314"
       y="63.972519" /></text>
<path
     inkscape:export-ydpi="90"
     inkscape:export-xdpi="90"
     inkscape:export-filename="/Users/stack/Documents/polygon3687.png"
     d="m 735.13878,543.43621 -65.5042,0 0,-273.18065 65.5042,0 z M 669.90806,270.27295 669.63484,101.029 l 65.5042,0 -0.53621,169.1782 z m -0.27322,273.16326 -65.51082,0 0,-170.0898 -420.92158,0 0,170.0898 -128.86354,0 0,-442.40721 128.86354,0 0,169.22656 364.94346,0 55.98475,0 65.51082,0 0,273.18065 z m 0,-442.40721 -65.51082,0 -0.0278,169.24395 65.80668,-0.0162 z"
     id="path3677"
     inkscape:connector-curvature="0"
     style="fill:#ba160c"
     sodipodi:nodetypes="ccccccccccccccccccccccccccccc" /><path
     d="m 207.62923,630.2338 c 11.05268,6.84383 16.58065,17.2832 16.58065,31.31972 0,10.17652 -3.24506,18.77432 -9.73843,25.79339 -7.01745,7.72 -16.49304,11.58001 -28.42513,11.58001 l -46.45146,0 0,-31.58258 46.45146,0 c 4.56255,0 6.84384,-3.42192 6.84384,-10.26575 0,-6.84061 -2.28129,-10.26253 -6.84384,-10.26253 l -46.45146,0 0,-31.31972 44.08419,0 c 4.56092,0 6.84222,-3.42193 6.84222,-10.26576 0,-6.84059 -2.2813,-10.26414 -6.84222,-10.26414 l -44.08419,0 0,-31.58096 44.08419,0 c 11.93047,0 21.40444,3.86001 28.42512,11.58002 6.3149,7.01744 9.47397,15.61686 9.47397,25.79176 0,12.63466 -4.65017,22.45908 -13.94891,29.47654 z m -68.03437,68.69474 -84.877871,0 0,-83.43058 31.584192,0 8.532892,0 44.762407,0 0,31.31973 -53.295299,0 0,20.52827 53.295299,0 0,31.58258 z m 0,-103.96047 -53.295302,0 0.06566,20.7092 -31.584203,0.1314 -0.06566,-52.42325 84.877865,0 0,31.58257 z"
     id="path3679"
     inkscape:connector-curvature="0"
     style="fill:#ba160c"
     sodipodi:nodetypes="cscsccsssccsssccscsccccccccccccccccccccc" /><path
     d="m 402.95933,698.92854 -31.58258,0 0,-43.16259 -50.45099,0 -1.00272,0 0,-31.5842 1.00272,0 50.45099,0 0,-18.95117 c 0,-6.84059 -2.28128,-10.26089 -6.84383,-10.26089 l -44.60988,0 0,-31.58258 44.60988,0 c 11.4064,0 20.6597,4.12284 27.76801,12.36856 7.10506,8.24733 10.6584,18.07338 10.6584,29.47654 l 0,93.69633 z m -83.03629,-43.16259 -31.71564,0 -19.73811,0 0,43.16259 -31.58419,0 0,-93.69796 c 0,-11.40316 3.55335,-21.22758 10.65842,-29.47653 7.10506,-8.24733 16.27399,-12.36857 27.50515,-12.36857 l 44.87273,0 0,31.58421 -44.87273,0 c -4.38733,0 -6.57938,3.4203 -6.57938,10.26089 l 0,18.95117 19.73811,0 31.71564,0 0,31.5842 z"
     id="path3683"
     inkscape:connector-curvature="0"
     style="fill:#ba160c" /><path
     d="m 578.19925,657.0802 c 0,11.4064 -3.42193,21.14322 -10.26576,29.21532 -7.36791,8.42092 -16.66827,12.63302 -27.89618,12.63302 l -116.85474,0 0,-31.58258 116.85474,0 c 4.38732,0 6.57935,-3.42192 6.57935,-10.26576 0,-6.84059 -2.19366,-10.26251 -6.57935,-10.26251 l -85.01093,0 c -11.22792,0 -20.52827,-4.21209 -27.89619,-12.63466 -7.0207,-7.89361 -10.53023,-17.54443 -10.53023,-28.95082 0,-11.40316 3.59878,-21.22759 10.79145,-29.47654 7.1943,-8.24733 16.40705,-12.36856 27.63497,-12.36856 l 116.85635,0 0,31.58096 -116.85635,0 c -4.38572,0 -6.57938,3.42192 -6.57938,10.26414 0,6.66698 2.19366,10.00128 6.57938,10.00128 l 85.01093,0 c 11.22791,0 20.52827,4.2121 27.89618,12.63465 6.84383,8.07047 10.26576,17.8089 10.26576,29.21206 z"
     id="path3685"
     inkscape:connector-curvature="0"
     style="fill:#ba160c" /><polygon
     inkscape:export-ydpi="90"
     inkscape:export-xdpi="90"
     points="591.906,352.207 661.331,352.207 661.331,371.672 572.44,371.672 572.44,288.135 661.494,288.135 661.494,307.599 591.906,307.599 591.906,320.089 656.952,320.089 656.952,339.555 591.906,339.555 "
     id="polygon3687"
     transform="matrix(1.6225316,0,0,1.6225316,-337.44245,95.87895)"
     style="fill:#ba160c" /><g
     id="g3349"
     transform="matrix(1.6225316,0,0,1.6225316,-220.66545,-209.46856)"
     style="fill:#ffffff;fill-opacity:1" /></svg>