<?xml version="1.0" encoding="UTF-8" standalone="no"?>
<svg
   xmlns:dc="http://purl.org/dc/elements/1.1/"
   xmlns:cc="http://creativecommons.org/ns#"
   xmlns:rdf="http://www.w3.org/1999/02/22-rdf-syntax-ns#"
   xmlns:svg="http://www.w3.org/2000/svg"
   xmlns="http://www.w3.org/2000/svg"
   xmlns:sodipodi="http://sodipodi.sourceforge.net/DTD/sodipodi-0.dtd"
   xmlns:inkscape="http://www.inkscape.org/namespaces/inkscape"
   viewBox="0 0 388.11249 388.1125"
   height="388.11249"
   width="388.11249"
   xml:space="preserve"
   version="1.1"
   id="svg4155"
   inkscape:version="0.91 r13725"
   sodipodi:docname="apache-spark.svg"><sodipodi:namedview
     pagecolor="#ffffff"
     bordercolor="#666666"
     borderopacity="1"
     objecttolerance="10"
     gridtolerance="10"
     guidetolerance="10"
     inkscape:pageopacity="0"
     inkscape:pageshadow="2"
     inkscape:window-width="2000"
     inkscape:window-height="1169"
     id="namedview20"
     showgrid="false"
     inkscape:zoom="0.59888239"
     inkscape:cx="-337.17276"
     inkscape:cy="-278.5902"
     inkscape:window-x="0"
     inkscape:window-y="24"
     inkscape:window-maximized="1"
     inkscape:current-layer="svg4155" /><metadata
     id="metadata4161"><rdf:RDF><cc:Work
         rdf:about=""><dc:format>image/svg+xml</dc:format><dc:type
           rdf:resource="http://purl.org/dc/dcmitype/StillImage" /><dc:title></dc:title></cc:Work></rdf:RDF></metadata><defs
     id="defs4159" /><path
     id="path4167"
     style="fill:#e25a1c;fill-opacity:1;fill-rule:evenodd;stroke:none"
     d="m 355.0275,204.10273 c -0.335,-0.71537 -0.48625,-1.07625 -0.66875,-1.42237 -4.8625,-9.24463 -9.71375,-18.49613 -14.62,-27.71788 -0.495,-0.92625 -0.43375,-1.4775 0.24375,-2.26875 7.73375,-9.035 15.4275,-18.10625 23.13,-27.16875 0.27,-0.3175 0.51375,-0.6575 0.6175,-1.2225 -2.2525,0.58875 -4.505,1.17 -6.755,1.76625 -9.345,2.47625 -18.6925,4.945 -28.02875,7.455 -0.87125,0.23375 -1.26625,-0.0213 -1.69875,-0.7425 -5.30625,-8.86375 -10.6425,-17.70875 -15.9725,-26.5575 -0.27625,-0.46 -0.5725,-0.90625 -1.15875,-1.2925 -0.42875,2.36125 -0.865,4.72125 -1.285,7.08375 -1.485,8.34 -2.965,16.6825 -4.445,25.02375 -0.16125,0.9 -0.38375,1.79625 -0.46,2.70375 -0.075,0.86125 -0.51625,1.17875 -1.295,1.42375 -11.01375,3.4575 -22.01625,6.94875 -33.01875,10.43625 -0.48375,0.1525 -0.955,0.35 -1.47375,0.82125 9.00125,3.5775 18.0025,7.15463 27.1425,10.78688 -0.3325,0.26412 -0.54875,0.46725 -0.7925,0.626 -5.6275,3.64112 -11.26375,7.26762 -16.8775,10.92775 -0.67125,0.4375 -1.205,0.4995 -1.96,0.15962 -6.72125,-3.02687 -13.46875,-5.9965 -20.2,-9.00287 -3.0225,-1.34963 -5.74125,-3.14263 -7.85875,-5.732 -4.78625,-5.85538 -3.84125,-12.51663 2.53625,-16.58538 2.0875,-1.33125 4.45625,-2.33 6.82,-3.10125 10.78625,-3.51375 21.61375,-6.9025 32.43625,-10.3025 0.90625,-0.28375 1.3275,-0.69 1.49625,-1.6725 1.44125,-8.34875 2.9375,-16.68875 4.44125,-25.025 0.805,-4.4575 1.2325,-9.03 3.4025,-13.115 0.8325,-1.57 1.83125,-3.10875 3.01875,-4.425 4.295,-4.7675 10.29125,-4.9525 14.83375,-0.41 1.5325,1.5325 2.85125,3.34125 3.99,5.19625 5.005,8.15875 9.9275,16.37 14.82375,24.595 0.57875,0.9725 1.10125,1.16875 2.1725,0.88125 12.0675,-3.235 24.1475,-6.42 36.2275,-9.61125 2.49125,-0.6575 5.01125,-0.9 7.56875,-0.42125 5.5675,1.0425 8.00125,5.28125 6.1175,10.65875 -0.8575,2.45125 -2.33625,4.52 -4,6.475 -8.42875,9.9125 -16.84375,19.83625 -25.30125,29.72375 -0.69125,0.8075 -0.70625,1.3925 -0.2275,2.295 5.045,9.50962 10.04625,19.04237 15.06625,28.56587 1.20125,2.28025 2.1175,4.645 2.145,7.26263 0.06,5.95363 -4.29375,10.82575 -10.21,11.69287 -3.31375,0.48688 -6.3925,-0.22112 -9.4975,-1.18012 -7.56625,-2.33888 -15.14625,-4.63875 -22.73,-6.9195 -0.7025,-0.21038 -0.97125,-0.48525 -1.095,-1.24263 -0.8725,-5.33687 -1.82375,-10.66212 -2.74375,-15.99175 -0.0263,-0.1465 0.0175,-0.30462 0.04,-0.63087 8.63375,2.38187 17.1925,4.74275 26.10375,7.20125"
     inkscape:connector-curvature="0" /><path
     id="path4169"
     style="fill:#ffffff;fill-opacity:1;fill-rule:evenodd;stroke:none"
     d="m 340.275,281.83373 c -6.82375,-0.0122 -13.6475,-0.0435 -20.4725,-0.0161 -0.9,0.002 -1.41125,-0.26025 -1.91375,-1.02638 -8.07875,-12.30525 -16.19375,-24.5865 -24.3025,-36.87262 -0.25875,-0.39113 -0.53375,-0.76851 -0.9925,-1.42626 -1.74625,13.27001 -3.4525,26.24363 -5.1625,39.25 -5.97125,0 -11.82375,0 -17.87,0 0.20875,-1.74125 0.3925,-3.42387 0.6125,-5.10012 1.745,-13.32375 3.49625,-26.64737 5.2475,-39.96975 1.6725,-12.72987 3.34,-25.45988 5.0375,-38.1875 0.05,-0.37988 0.3025,-0.85938 0.6125,-1.061 6.14875,-4.00925 12.31875,-7.98387 18.48875,-11.96138 0.09,-0.0586 0.215,-0.0655 0.53375,-0.15575 -1.86625,14.23388 -3.71875,28.35638 -5.57125,42.47951 0.0738,0.0497 0.14625,0.1 0.22,0.15137 9.68,-10.7305 19.36125,-21.461 29.25,-32.4215 0.28625,1.65 0.53375,3.06212 0.77625,4.47512 0.69375,4.04588 1.35875,8.09763 2.10125,12.13526 0.15,0.8135 -0.0663,1.31987 -0.60875,1.88575 -6.26,6.55124 -12.49625,13.125 -18.7375,19.69237 -0.2725,0.28662 -0.53375,0.584 -0.84375,0.92387 0.19875,0.31888 0.36875,0.625 0.57,0.90863 10.76625,15.11138 21.5325,30.22025 32.3075,45.32525 0.195,0.27387 0.47625,0.48875 0.7175,0.7315 0,0.0795 0,0.15962 0,0.23975"
     inkscape:connector-curvature="0" /><path
     id="path4171"
     style="fill:#ffffff;fill-opacity:1;fill-rule:evenodd;stroke:none"
     d="m 128.455,242.55148 c -0.2725,-1.39262 -0.4675,-3.4375 -1.08625,-5.34775 -2.99225,-9.23388 -12.46687,-14.29725 -22.2735,-12.01462 -10.757875,2.5035 -18.445875,10.96099 -19.558125,21.9385 -0.82325,8.11962 3.54925,15.94237 11.679125,18.87837 6.54988,2.36625 12.856,1.3765 18.711,-2.13475 7.76075,-4.65625 11.97025,-11.56875 12.52775,-21.31975 z m -47.242125,34.32075 c -0.53075,3.97262 -1.037125,7.71638 -1.52975,11.46287 -0.654375,4.98002 -1.307125,9.96097 -1.934125,14.9434 -0.07325,0.58154 -0.2495,0.83789 -0.874,0.83398 -4.90875,-0.02 -9.817375,-0.0151 -14.725625,-0.0225 -0.11175,0 -0.223625,-0.0615 -0.48975,-0.13623 0.296875,-2.35107 0.5855,-4.70899 0.894125,-7.06495 1.083,-8.26024 2.1635,-16.52149 3.262625,-24.78024 1.256875,-9.44337 2.2525,-18.93212 3.861875,-28.31499 2.8505,-16.61426 16.94525,-30.93213 33.48487,-34.49701 9.58888,-2.06837 18.76563,-1.11137 27.13688,4.28413 8.34875,5.38088 13.1375,13.1895 14.22875,23.01175 1.54375,13.88762 -3.5675,25.4165 -13.4325,34.95362 -6.47413,6.26125 -14.22563,10.24026 -23.1665,11.58488 -9.2105,1.38925 -17.86825,-0.14738 -25.63775,-5.57713 -0.285625,-0.19875 -0.590375,-0.3725 -1.079125,-0.68162"
     inkscape:connector-curvature="0" /><path
     id="path4173"
     style="fill:#ffffff;fill-opacity:1;fill-rule:evenodd;stroke:none"
     d="m 73.213875,197.92348 c -5.504875,4.09813 -10.812,8.04837 -16.142125,12.01613 -0.858875,-1.3555 -1.628375,-2.70551 -2.526875,-3.96188 -2.3125,-3.2315 -5.1845,-5.646 -9.36175,-5.939 -3.474125,-0.24362 -6.445375,0.90088 -8.810125,3.46237 -2.115125,2.29063 -2.3915,5.54738 -0.415,8.13438 2.17575,2.84763 4.557125,5.54925 6.98875,8.1855 4.03075,4.37012 8.244125,8.57275 12.249,12.96625 3.644125,3.99663 6.548875,8.4815 7.445875,13.94637 1.066875,6.49651 -0.229,12.68401 -3.30225,18.39401 -5.687,10.56587 -14.642625,16.69625 -26.465375,18.61475 -5.221125,0.84625 -10.42825,0.67775 -15.522875,-0.82225 C 10.58985,280.92985 5.8837875,276.49873 2.857425,270.24135 1.7880875,268.02898 0.970215,265.69498 0,263.32385 c 5.9194375,-3.16737 11.669438,-6.24512 17.503875,-9.36762 0.203625,0.48638 0.34575,0.89112 0.535625,1.27 0.994625,1.99125 1.809125,4.1065 3.0415,5.939 3.654375,5.43363 9.557125,7.08738 15.5455,4.40087 1.538,-0.69 3.0195,-1.66362 4.28125,-2.78224 3.858875,-3.42526 4.5825,-8.19388 1.726,-12.50388 -1.641125,-2.47613 -3.69375,-4.69625 -5.691875,-6.915 -4.775375,-5.30375 -9.745125,-10.4375 -14.410125,-15.8365 -3.215875,-3.72112 -5.400875,-8.061 -6.09225,-13.04537 -0.755375,-5.44188 0.333,-10.57713 3.165,-15.15875 7.0405,-11.38813 17.2715,-17.3125 30.80375,-16.82175 7.71475,0.27975 13.857875,3.88724 18.626375,9.88137 1.411125,1.77287 2.7335,3.61662 4.17925,5.5395"
     inkscape:connector-curvature="0" /><path
     id="path4175"
     style="fill:#ffffff;fill-opacity:1;fill-rule:evenodd;stroke:none"
     d="m 203.93,259.06273 c -0.8975,6.85975 -1.74375,13.37988 -2.62375,19.895 -0.045,0.3295 -0.30375,0.77825 -0.585,0.90962 -13.32,6.16901 -30.86,5.30763 -41.79875,-7.11474 -5.8775,-6.67388 -8.34375,-14.59526 -7.975,-23.40776 0.8525,-20.39987 17.76625,-38.2085 37.9925,-40.69675 11.8175,-1.45412 22.18125,1.73775 30.1875,10.9175 5.4525,6.25388 7.975,13.72163 7.6025,21.96288 -0.245,5.44387 -1.09875,10.86375 -1.77625,16.28275 -0.96,7.67475 -2.00875,15.33987 -3.0225,23.00875 -0.0362,0.2725 -0.0913,0.5425 -0.1525,0.88875 -5.27375,0 -10.51625,0 -15.935,0 0.2125,-1.76225 0.40625,-3.48737 0.63,-5.2085 1.15375,-8.858 2.4225,-17.70175 3.43375,-26.57525 0.63,-5.52638 0.23375,-11.01125 -2.29375,-16.12988 -2.68875,-5.44 -7.19625,-8.31737 -13.125,-8.94625 -12.27,-1.29887 -23.94375,7.2275 -26.56125,19.30225 -1.72875,7.97113 0.99625,15.61125 7.34375,19.83488 6.1875,4.11675 12.81375,4.13037 19.55625,1.4605 3.41875,-1.3525 6.33125,-3.49413 9.1025,-6.38375"
     inkscape:connector-curvature="0" /><path
     id="path4177"
     style="fill:#ffffff;fill-opacity:1;fill-rule:evenodd;stroke:none"
     d="m 271.02875,210.19698 c -0.7275,5.52487 -1.44375,10.96725 -2.17625,16.52237 -3.36875,0 -6.6725,-0.0195 -9.975,0.007 -2.67625,0.021 -5.11875,1.7485 -5.9225,4.24763 -0.315,0.9775 -0.43125,2.02337 -0.56625,3.04874 -1.67625,12.68613 -3.34,25.37263 -5.00375,38.06013 -0.42,3.19875 -0.82875,6.39987 -1.24875,9.64737 -5.5275,0 -10.97625,0 -16.58625,0 0.31,-2.43987 0.6025,-4.80025 0.91125,-7.15762 1.07875,-8.22275 2.1575,-16.44237 3.25,-24.66112 0.94375,-7.11288 1.785,-14.24125 2.89625,-21.32763 1.49,-9.49962 10.94125,-17.93563 20.5275,-18.35262 4.57375,-0.19876 9.16375,-0.0341 13.89375,-0.0341"
     inkscape:connector-curvature="0" /><path
     id="path4179"
     style="fill:#ffffff;fill-opacity:1;fill-rule:nonzero;stroke:none"
     d="m 359.82875,281.7301 0,-7.00137 -0.04,0 -2.7475,7.00137 -0.87625,0 -2.7475,-7.00137 -0.0412,0 0,7.00137 -1.38375,0 0,-8.38612 2.13625,0 2.50375,6.371 2.46375,-6.371 2.1175,0 0,8.38612 -1.385,0 z m -12.1725,-7.26512 0,7.26512 -1.38375,0 0,-7.26512 -2.62625,0 0,-1.121 6.63625,0 0,1.121 -2.62625,0"
     inkscape:connector-curvature="0" /><path
     id="path4181"
     style="fill:#ffffff;fill-opacity:1;fill-rule:nonzero;stroke:none"
     d="m 95.432125,186.1476 4.11225,0 -0.969625,-6.226 -3.142625,6.226 z m 4.757875,4.0225 -6.841875,0 -2.173375,4.25738 -4.845125,0 10.6875,-19.96625 4.670875,0 3.63912,19.96625 -4.49162,0 -0.6455,-4.25737"
     inkscape:connector-curvature="0" /><path
     id="path4183"
     style="fill:#ffffff;fill-opacity:1;fill-rule:nonzero;stroke:none"
     d="m 124.669,178.48248 -2.4375,0 -0.82038,4.6095 2.43551,0 c 1.46962,0 2.64462,-0.96725 2.64462,-2.78912 0,-1.20413 -0.73625,-1.82038 -1.82225,-1.82038 z m -5.90188,-4.02125 6.40288,0 c 3.3475,0 5.695,1.99625 5.695,5.4305 0,4.317 -3.05375,7.22275 -7.39963,7.22275 l -2.75937,0 -1.29338,7.313 -4.1675,0 3.522,-19.96625"
     inkscape:connector-curvature="0" /><path
     id="path4185"
     style="fill:#ffffff;fill-opacity:1;fill-rule:nonzero;stroke:none"
     d="m 145.0275,186.1476 4.1125,0 -0.97,-6.226 -3.1425,6.226 z m 4.7575,4.0225 -6.84125,0 -2.17375,4.25738 -4.845,0 10.6875,-19.96625 4.67,0 3.64,19.96625 -4.49125,0 -0.64625,-4.25737"
     inkscape:connector-curvature="0" /><path
     id="path4187"
     style="fill:#ffffff;fill-opacity:1;fill-rule:nonzero;stroke:none"
     d="m 176.83375,193.72185 c -1.40875,0.6455 -2.96375,1.02925 -4.52125,1.02925 -5.28375,0 -8.60375,-3.96524 -8.60375,-8.92775 0,-6.34325 5.34375,-11.68712 11.6875,-11.68712 1.585,0 3.025,0.38125 4.19875,1.0275 l -0.5875,4.78763 c -0.88,-0.97013 -2.29125,-1.64513 -4.0525,-1.64513 -3.64,0 -6.87,3.29013 -6.87,7.106 0,2.90625 1.82,5.1695 4.69875,5.1695 1.7625,0 3.46375,-0.67575 4.60875,-1.61525 l -0.55875,4.75537"
     inkscape:connector-curvature="0" /><path
     id="path4189"
     style="fill:#ffffff;fill-opacity:1;fill-rule:nonzero;stroke:none"
     d="m 202.315,186.38148 -8.69125,0 -1.41125,8.046 -4.1675,0 3.5225,-19.96625 4.17,0 -1.40875,7.89787 8.69125,0 1.4075,-7.89787 4.17,0 -3.52125,19.96625 -4.17,0 1.40875,-8.046"
     inkscape:connector-curvature="0" /><path
     id="path4191"
     style="fill:#ffffff;fill-opacity:1;fill-rule:nonzero;stroke:none"
     d="m 217.60625,194.42748 3.52125,-19.96625 11.07125,0 -0.705,4.02125 -6.90125,0 -0.7025,3.87662 6.34,0 -0.7025,4.02238 -6.34375,0 -0.705,4.023 6.90125,0 -0.705,4.023 -11.06875,0"
     inkscape:connector-curvature="0" /></svg>