<?xml version="1.0" encoding="UTF-8" standalone="no"?>
<!-- Generator: Adobe Illustrator 15.1.0, SVG Export Plug-In . SVG Version: 6.00 Build 0)  -->

<svg
   xmlns:dc="http://purl.org/dc/elements/1.1/"
   xmlns:cc="http://creativecommons.org/ns#"
   xmlns:rdf="http://www.w3.org/1999/02/22-rdf-syntax-ns#"
   xmlns:svg="http://www.w3.org/2000/svg"
   xmlns="http://www.w3.org/2000/svg"
   xmlns:sodipodi="http://sodipodi.sourceforge.net/DTD/sodipodi-0.dtd"
   xmlns:inkscape="http://www.inkscape.org/namespaces/inkscape"
   version="1.1"
   id="Layer_1"
   x="0px"
   y="0px"
   width="550"
   height="550"
   viewBox="0 0 550 550"
   enable-background="new 0 0 792 612"
   xml:space="preserve"
   inkscape:version="0.91 r13725"
   sodipodi:docname="hbase.svg"
   inkscape:export-filename="hbase_logo_filledin.png"
   inkscape:export-xdpi="90"
   inkscape:export-ydpi="90"><metadata
     id="metadata3285"><rdf:RDF><cc:Work
         rdf:about=""><dc:format>image/svg+xml</dc:format><dc:type
           rdf:resource="http://purl.org/dc/dcmitype/StillImage" /><dc:title></dc:title></cc:Work></rdf:RDF></metadata><defs
     id="defs3283" /><sodipodi:namedview
     pagecolor="#ffffff"
     bordercolor="#666666"
     borderopacity="1"
     objecttolerance="10"
     gridtolerance="10"
     guidetolerance="10"
     inkscape:pageopacity="0"
     inkscape:pageshadow="2"
     inkscape:window-width="2000"
     inkscape:window-height="1169"
     id="namedview3281"
     showgrid="false"
     inkscape:zoom="1.1427669"
     inkscape:cx="53.727686"
     inkscape:cy="165.6609"
     inkscape:window-x="0"
     inkscape:window-y="24"
     inkscape:window-maximized="1"
     inkscape:current-layer="Layer_1" /><path
     d="m 112.58722,306.79709 -9.895,0 0,-51.583 9.895,0 0,51.583 z m -9.77344,-51.59213 -0.12156,-31.94487 9.895,0 -0.0405,31.98539 z m -0.12156,51.59213 -9.895997,0 0,-32.117 -63.584,0 0,32.117 -19.4659999,0 0,-83.537 19.4659999,0 0,31.954 55.128,0 8.457,0 9.895997,0 0,51.583 z m 0,-83.537 -9.895997,0 0,31.98539 10.017557,-0.0405 z"
     id="path3269"
     inkscape:connector-curvature="0"
     style="fill:#ba160c"
     sodipodi:nodetypes="cccccccccccccccccccccccccccccc" /><path
     d="m 214.94022,264.45909 c 6.812,4.218 10.219,10.652 10.219,19.303 0,6.272 -2,11.571 -6.002,15.897 -4.325,4.758 -10.165,7.137 -17.519,7.137 l -28.629,0 0,-19.465 28.629,0 c 2.812,0 4.218,-2.109 4.218,-6.327 0,-4.216 -1.406,-6.325 -4.218,-6.325 l -28.629,0 0,-19.30299 27.17,0 c 2.811,0 4.217,-2.10901 4.217,-6.327 0,-4.216 -1.406,-6.32601 -4.217,-6.32601 l -27.17,0 0,-19.464 27.17,0 c 7.353,0 13.192,2.37901 17.519,7.137 3.892,4.325 5.839,9.625 5.839,15.89601 0,7.78699 -2.866,13.84199 -8.597,18.16699 z m -41.931,42.338 -52.312,0 0,-51.42 19.466,0 5.259,0 27.588,0 0,19.303 -32.847,0 0,12.652 32.847,0 0,19.465 z m 0,-64.073 -32.847,0 0.0405,13.24974 -19.466,-0.48623 -0.0405,-32.22851 52.312,0 0,19.465 z"
     id="path3271"
     inkscape:connector-curvature="0"
     style="fill:#ba160c"
     sodipodi:nodetypes="cscsccsssccsssccscsccccccccccccccccccccc" /><path
     d="m 234.12422,201.5441 0,-8.92001 14.532,0 0,-5.353 c 0,-1.932 -0.644,-2.899 -1.933,-2.899 l -12.6,0 0,-8.919 12.6,0 c 3.223,0 5.836,1.164 7.842,3.494 2.007,2.33001 3.011,5.104 3.011,8.325 l 0,26.463 -8.921,0 0,-12.19 -14.531,0 0,-9.9e-4 z m 118.603,12.19099 -29.587,0 c -3.469,0 -6.417,-1.15199 -8.845,-3.458 -2.429,-2.304 -3.642,-5.191 -3.642,-8.659 l 0,-14.049 c 0,-3.47 1.213,-6.356 3.642,-8.66199 2.428,-2.30401 5.376,-3.45501 8.845,-3.45501 l 29.587,0 0,8.91901 -29.587,0 c -2.378,0 -3.567,1.06599 -3.567,3.197 l 0,14.04899 c 0,2.131 1.189,3.19601 3.567,3.19601 l 29.587,0 0,8.92199 0,0 z m 93.883,0 -8.996,0 0,-14.718 -22.895,0 0,14.718 -8.92,0 0,-38.282 8.92,0 0,14.64401 22.895,0 0,-14.64401 8.996,0 0,38.282 0,0 z m 93.885,-29.363 -31.889,0 0,5.72501 29.807,0 0,8.91999 -29.807,0 0,5.797 31.814,0 0,8.92001 -40.735,0 0,-38.28201 40.809,0 0,8.92 z m -306.371,-8.919 0,8.919 -12.674,0 c -1.239,0 -1.858,0.967 -1.858,2.899 l 0,5.353 5.575,0 2.435,0 6.522,0 0,8.92001 -6.522,0 -2.435,0 -5.575,0 0,12.19 -8.92,0 0,-26.46301 c 0,-3.221 1.004,-5.99599 3.011,-8.32499 2.006,-2.33001 4.596,-3.49401 7.768,-3.49401 l 12.673,0 0,0.001 z m -100.462,25.794 0,-8.92 13.083,0 c 1.288,0 1.933,-1.313 1.933,-3.93899 0,-2.67601 -0.645,-4.01501 -1.933,-4.01501 l -13.083,0 0,-8.919 13.083,0 c 3.32,0 5.995,1.363 8.028,4.08801 1.883,2.478 2.825,5.42499 2.825,8.846 0,3.41899 -0.942,6.34199 -2.825,8.77099 -2.033,2.725 -4.708,4.088 -8.028,4.088 l -13.083,0 z m -77.011997,12.488 -8.92,0 0,-12.19 -14.532,0 0,-8.92 14.532,0 0,-5.353 c 0,-1.93199 -0.644,-2.899 -1.932,-2.899 l -12.6,0 0,-8.919 12.6,0 c 3.222,0 5.835,1.164 7.842,3.49401 2.007,2.32999 3.01,5.10399 3.01,8.32499 l 0,26.462 0,0 z m 77.011997,-38.282 0,8.919 -15.016,0 0,7.954 15.016,0 0,8.92001 -15.016,0 0,12.488 -8.92,0 0,-38.28201 23.936,0 z m -100.462997,26.09101 -7.604,0 -1.354,0 -5.575,0 0,12.19 -8.9199999,0 0,-26.46301 c 0,-3.221 1.0039999,-5.99599 3.0099999,-8.32499 2.007,-2.33001 4.597,-3.49401 7.768,-3.49401 l 12.674,0 0,8.91901 -12.674,0 c -1.239,0 -1.858,0.96699 -1.858,2.899 l 0,5.35299 5.575,0 1.354,0 7.604,0 0,8.92101 z"
     id="path3273"
     style="fill:#666666"
     inkscape:connector-curvature="0" /><path
     d="m 335.32622,306.79709 -19.465,0 0,-26.602 -31.094,0 -0.618,0 0,-19.466 0.618,0 31.094,0 0,-11.67999 c 0,-4.216 -1.406,-6.32401 -4.218,-6.32401 l -27.494,0 0,-19.465 27.494,0 c 7.03,0 12.733,2.541 17.114,7.623 4.379,5.083 6.569,11.139 6.569,18.167 l 0,57.747 z m -51.177,-26.602 -19.547,0 -12.165,0 0,26.602 -19.466,0 0,-57.74799 c 0,-7.02801 2.19,-13.08301 6.569,-18.16701 4.379,-5.08299 10.03,-7.623 16.952,-7.623 l 27.656,0 0,19.466 -27.656,0 c -2.704,0 -4.055,2.10801 -4.055,6.32401 l 0,11.67999 12.165,0 19.547,0 0,19.466 z"
     id="path3275"
     inkscape:connector-curvature="0"
     style="fill:#ba160c" /><path
     d="m 443.33022,281.00509 c 0,7.03 -2.109,13.031 -6.327,18.006 -4.541,5.19 -10.273,7.786 -17.193,7.786 l -72.02,0 0,-19.465 72.02,0 c 2.704,0 4.055,-2.109 4.055,-6.327 0,-4.216 -1.352,-6.325 -4.055,-6.325 l -52.394,0 c -6.92,0 -12.652,-2.596 -17.193,-7.787 -4.327,-4.865 -6.49,-10.813 -6.49,-17.843 0,-7.028 2.218,-13.083 6.651,-18.167 4.434,-5.083 10.112,-7.623 17.032,-7.623 l 72.021,0 0,19.464 -72.021,0 c -2.703,0 -4.055,2.109 -4.055,6.326 0,4.109 1.352,6.164 4.055,6.164 l 52.394,0 c 6.92,0 12.652,2.596 17.193,7.787 4.218,4.974 6.327,10.976 6.327,18.004 z"
     id="path3277"
     inkscape:connector-curvature="0"
     style="fill:#ba160c" /><polygon
     points="591.906,352.207 661.331,352.207 661.331,371.672 572.44,371.672 572.44,288.135 661.494,288.135 661.494,307.599 591.906,307.599 591.906,320.089 656.952,320.089 656.952,339.555 591.906,339.555 "
     id="polygon3279"
     style="fill:#ba160c"
     transform="translate(-120.99878,-64.874912)" /></svg>