<?xml version="1.0" encoding="UTF-8" standalone="no"?>
<!-- Generator: Adobe Illustrator 18.1.1, SVG Export Plug-In . SVG Version: 6.00 Build 0)  -->

<svg
   xmlns:dc="http://purl.org/dc/elements/1.1/"
   xmlns:cc="http://creativecommons.org/ns#"
   xmlns:rdf="http://www.w3.org/1999/02/22-rdf-syntax-ns#"
   xmlns:svg="http://www.w3.org/2000/svg"
   xmlns="http://www.w3.org/2000/svg"
   xmlns:sodipodi="http://sodipodi.sourceforge.net/DTD/sodipodi-0.dtd"
   xmlns:inkscape="http://www.inkscape.org/namespaces/inkscape"
   version="1.1"
   id="Layer_1"
   x="0px"
   y="0px"
   viewBox="0 0 459 459"
   enable-background="new 0 0 939 459"
   xml:space="preserve"
   inkscape:version="0.91 r13725"
   sodipodi:docname="apache.svg"
   width="459"
   height="459"><metadata
     id="metadata423"><rdf:RDF><cc:Work
         rdf:about=""><dc:format>image/svg+xml</dc:format><dc:type
           rdf:resource="http://purl.org/dc/dcmitype/StillImage" /><dc:title></dc:title></cc:Work></rdf:RDF></metadata><defs
     id="defs421" /><sodipodi:namedview
     pagecolor="#ffffff"
     bordercolor="#666666"
     borderopacity="1"
     objecttolerance="10"
     gridtolerance="10"
     guidetolerance="10"
     inkscape:pageopacity="0"
     inkscape:pageshadow="2"
     inkscape:window-width="2000"
     inkscape:window-height="1169"
     id="namedview419"
     showgrid="false"
     inkscape:zoom="0.70012979"
     inkscape:cx="62.929403"
     inkscape:cy="297.8363"
     inkscape:window-x="0"
     inkscape:window-y="24"
     inkscape:window-maximized="1"
     inkscape:current-layer="Layer_1" /><g
     id="g3"
     transform="matrix(0.53380721,0,0,0.53380721,-15.796507,260.85648)"><path
       d="m 259.7,117.6 0,18.3 -2.4,0 0,-18.3 -6.7,0 0,-2.3 15.8,0 0,2.3 -6.7,0 z"
       id="path5"
       inkscape:connector-curvature="0"
       style="fill:#6d6e71" /><path
       d="m 292.6,135.9 0,-9.1 -12.4,0 0,9.1 -2.4,0 0,-20.6 2.4,0 0,9.3 12.4,0 0,-9.3 2.4,0 0,20.6 -2.4,0 z"
       id="path7"
       inkscape:connector-curvature="0"
       style="fill:#6d6e71" /><path
       d="m 311.4,117.6 0,6.8 10.4,0 0,2.3 -10.4,0 0,7.1 12,0 0,2.2 -14.4,0 0,-20.6 14,0 0,2.3 -11.6,0 z"
       id="path9"
       inkscape:connector-curvature="0"
       style="fill:#6d6e71" /></g><g
     id="g11"
     transform="matrix(0.53380721,0,0,0.53380721,-15.796507,260.85648)"><g
       id="g13"><path
         d="m 232.6,277.3 49.3,-117.8 9.5,0 49.3,117.8 -12.4,0 -15.3,-36.8 -53,0 -15.1,36.8 -12.3,0 z m 54.1,-104.2 -24.2,58.2 47.8,0 -23.6,-58.2 z"
         id="path15"
         inkscape:connector-curvature="0"
         style="fill:#d22128" /><path
         d="m 353.3,277.3 0,-117.8 48.8,0 c 20.2,0 34.8,18.7 34.8,37 0,19.2 -13.6,37.3 -33.8,37.3 l -38.3,0 0,43.5 -11.5,0 z m 11.5,-53.8 37.7,0 c 13.9,0 22.9,-12.8 22.9,-27 0,-14.8 -10.9,-26.7 -23.9,-26.7 l -36.7,0 0,53.7 z"
         id="path17"
         inkscape:connector-curvature="0"
         style="fill:#d22128" /><path
         d="m 430.5,277.3 49.3,-117.8 9.5,0 49.3,117.8 -12.6,0 -15.3,-36.8 -52.9,0 -15.1,36.8 -12.2,0 z m 54.1,-104.2 -24.2,58.2 47.8,0 -23.6,-58.2 z"
         id="path19"
         inkscape:connector-curvature="0"
         style="fill:#d22128" /><path
         d="m 594.2,158.8 c 20.9,0 36.2,10.6 43.5,25.7 l -9.3,5.6 c -7.5,-15.6 -22.1,-20.9 -34.8,-20.9 -28.2,0 -43.6,25.2 -43.6,48.9 0,26 19.1,49.6 44.1,49.6 13.3,0 28.9,-6.6 36.3,-21.9 l 9.6,5 c -7.6,17.6 -28.5,27.4 -46.6,27.4 -32.3,0 -55.1,-30.9 -55.1,-60.7 0,-28.3 20.4,-58.7 55.9,-58.7 z"
         id="path21"
         inkscape:connector-curvature="0"
         style="fill:#d22128" /><path
         d="m 749.1,159.5 0,117.8 -11.6,0 0,-55.1 -69.8,0 0,55.1 -11.4,0 0,-117.8 11.4,0 0,52.4 69.8,0 0,-52.4 11.6,0 z"
         id="path23"
         inkscape:connector-curvature="0"
         style="fill:#d22128" /><path
         d="m 854.8,267 0,10.3 -79.1,0 0,-117.8 77.6,0 0,10.3 -66.2,0 0,42.5 57.7,0 0,9.8 -57.7,0 0,44.9 67.7,0 z"
         id="path25"
         inkscape:connector-curvature="0"
         style="fill:#d22128" /></g></g><g
     id="g27"
     transform="matrix(0.53380721,0,0,0.53380721,-15.796507,260.85648)"><path
       d="m 243.6,302.2 c 1.4,0.4 2.6,1 3.7,1.7 l -1.2,2.7 c -1.1,-0.7 -2.2,-1.2 -3.4,-1.6 -1.2,-0.3 -2.4,-0.5 -3.4,-0.5 -1.6,0 -2.9,0.3 -3.8,0.9 -1,0.6 -1.4,1.4 -1.4,2.4 0,0.9 0.3,1.6 0.8,2.2 0.5,0.6 1.2,1 2,1.4 0.8,0.3 1.9,0.7 3.3,1.1 1.7,0.5 3.1,1.1 4.1,1.5 1,0.5 1.9,1.2 2.7,2.1 0.7,0.9 1.1,2.1 1.1,3.7 0,1.4 -0.4,2.6 -1.1,3.6 -0.7,1 -1.8,1.8 -3.2,2.4 -1.4,0.6 -2.9,0.9 -4.7,0.9 -1.8,0 -3.5,-0.3 -5.2,-1 -1.7,-0.7 -3.1,-1.6 -4.3,-2.8 l 1.3,-2.5 c 1.1,1.1 2.4,2 3.9,2.6 1.5,0.6 2.9,0.9 4.3,0.9 1.8,0 3.2,-0.3 4.3,-1 1,-0.7 1.6,-1.6 1.6,-2.8 0,-0.9 -0.3,-1.7 -0.8,-2.3 -0.5,-0.6 -1.2,-1.1 -2,-1.4 -0.8,-0.3 -1.9,-0.7 -3.3,-1.1 -1.7,-0.5 -3,-1 -4.1,-1.4 -1,-0.5 -1.9,-1.1 -2.7,-2.1 -0.7,-0.9 -1.1,-2.1 -1.1,-3.6 0,-1.3 0.4,-2.4 1.1,-3.4 0.7,-1 1.7,-1.7 3,-2.3 1.3,-0.5 2.8,-0.8 4.5,-0.8 1.2,-0.1 2.6,0.1 4,0.5 z"
       id="path29"
       inkscape:connector-curvature="0"
       style="fill:#6d6e71" /><path
       d="m 280.5,303.3 c 2,1.1 3.6,2.6 4.7,4.5 1.2,1.9 1.7,4 1.7,6.3 0,2.3 -0.6,4.4 -1.7,6.3 -1.2,1.9 -2.7,3.4 -4.7,4.6 -2,1.1 -4.2,1.7 -6.5,1.7 -2.4,0 -4.6,-0.6 -6.6,-1.7 -2,-1.1 -3.6,-2.6 -4.7,-4.6 -1.2,-1.9 -1.7,-4 -1.7,-6.3 0,-2.3 0.6,-4.4 1.7,-6.3 1.2,-1.9 2.7,-3.4 4.7,-4.5 2,-1.1 4.2,-1.7 6.6,-1.7 2.3,0 4.5,0.6 6.5,1.7 z m -11.6,2.3 c -1.5,0.9 -2.8,2.1 -3.7,3.6 -0.9,1.5 -1.4,3.1 -1.4,4.9 0,1.8 0.5,3.5 1.4,5 0.9,1.5 2.2,2.7 3.7,3.6 1.5,0.9 3.2,1.3 5.1,1.3 1.8,0 3.5,-0.4 5,-1.3 1.5,-0.9 2.8,-2.1 3.7,-3.6 0.9,-1.5 1.4,-3.2 1.4,-5 0,-1.8 -0.5,-3.4 -1.4,-4.9 -0.9,-1.5 -2.1,-2.7 -3.7,-3.5 -1.5,-0.9 -3.2,-1.3 -5,-1.3 -1.8,-0.1 -3.5,0.3 -5.1,1.2 z"
       id="path31"
       inkscape:connector-curvature="0"
       style="fill:#6d6e71" /><path
       d="m 304.9,304.4 0,8.7 11.6,0 0,2.7 -11.6,0 0,10.6 -2.9,0 0,-24.9 15.8,0 0,2.7 -12.9,0 z"
       id="path33"
       inkscape:connector-curvature="0"
       style="fill:#6d6e71" /><path
       d="m 340.9,304.4 0,22.1 -2.8,0 0,-22.1 -8.1,0 0,-2.7 19,0 0,2.7 -8.1,0 z"
       id="path35"
       inkscape:connector-curvature="0"
       style="fill:#6d6e71" /><path
       d="m 385.8,326.5 -6.7,-20.9 -6.8,20.9 -2.9,0 -8.3,-24.9 3.1,0 6.8,21.6 6.7,-21.5 2.8,0 6.8,21.6 6.7,-21.6 2.9,0 -8.3,24.9 -2.8,0 z"
       id="path37"
       inkscape:connector-curvature="0"
       style="fill:#6d6e71" /><path
       d="m 411.2,320.3 -2.8,6.3 -3,0 11.1,-24.9 2.9,0 11.1,24.9 -3.1,0 -2.8,-6.3 -13.4,0 z m 6.8,-15.4 -5.5,12.6 11.1,0 -5.6,-12.6 z"
       id="path39"
       inkscape:connector-curvature="0"
       style="fill:#6d6e71" /><path
       d="m 455.3,318.6 c -0.7,0 -1.3,0.1 -1.7,0.1 l -6.6,0 0,7.9 -2.8,0 0,-24.9 9.4,0 c 3.1,0 5.5,0.7 7.2,2.2 1.7,1.5 2.6,3.5 2.6,6.2 0,2 -0.5,3.7 -1.4,5.1 -1,1.4 -2.3,2.4 -4.1,3 l 5.8,8.4 -3.2,0 -5.2,-8 z m 3.6,-4.1 c 1.2,-1 1.8,-2.5 1.8,-4.4 0,-1.9 -0.6,-3.3 -1.8,-4.2 -1.2,-1 -3,-1.4 -5.2,-1.4 l -6.6,0 0,11.5 6.6,0 c 2.2,0 4,-0.5 5.2,-1.5 z"
       id="path41"
       inkscape:connector-curvature="0"
       style="fill:#6d6e71" /><path
       d="m 482.2,304.4 0,8.2 12.5,0 0,2.7 -12.5,0 0,8.5 14.5,0 0,2.7 -17.3,0 0,-24.9 16.9,0 0,2.7 -14.1,0 z"
       id="path43"
       inkscape:connector-curvature="0"
       style="fill:#6d6e71" /><path
       d="m 536.3,304.4 0,8.7 11.6,0 0,2.7 -11.6,0 0,10.6 -2.8,0 0,-24.9 15.8,0 0,2.7 -13,0 z"
       id="path45"
       inkscape:connector-curvature="0"
       style="fill:#6d6e71" /><path
       d="m 580.7,303.3 c 2,1.1 3.6,2.6 4.7,4.5 1.2,1.9 1.7,4 1.7,6.3 0,2.3 -0.6,4.4 -1.7,6.3 -1.2,1.9 -2.7,3.4 -4.7,4.6 -2,1.1 -4.2,1.7 -6.5,1.7 -2.4,0 -4.6,-0.6 -6.6,-1.7 -2,-1.1 -3.6,-2.6 -4.7,-4.6 -1.2,-1.9 -1.7,-4 -1.7,-6.3 0,-2.3 0.6,-4.4 1.7,-6.3 1.2,-1.9 2.7,-3.4 4.7,-4.5 2,-1.1 4.2,-1.7 6.6,-1.7 2.4,0 4.6,0.6 6.5,1.7 z m -11.5,2.3 c -1.5,0.9 -2.8,2.1 -3.7,3.6 -0.9,1.5 -1.4,3.1 -1.4,4.9 0,1.8 0.5,3.5 1.4,5 0.9,1.5 2.2,2.7 3.7,3.6 1.5,0.9 3.2,1.3 5.1,1.3 1.8,0 3.5,-0.4 5,-1.3 1.5,-0.9 2.8,-2.1 3.7,-3.6 0.9,-1.5 1.4,-3.2 1.4,-5 0,-1.8 -0.5,-3.4 -1.4,-4.9 -0.9,-1.5 -2.1,-2.7 -3.7,-3.5 -1.5,-0.9 -3.2,-1.3 -5,-1.3 -1.9,-0.1 -3.6,0.3 -5.1,1.2 z"
       id="path47"
       inkscape:connector-curvature="0"
       style="fill:#6d6e71" /><path
       d="m 619.9,323.9 c -1.8,1.8 -4.4,2.7 -7.6,2.7 -3.3,0 -5.8,-0.9 -7.7,-2.7 -1.9,-1.8 -2.8,-4.4 -2.8,-7.6 l 0,-14.6 2.8,0 0,14.6 c 0,2.4 0.7,4.3 2,5.6 1.4,1.3 3.2,2 5.6,2 2.4,0 4.2,-0.7 5.6,-2 1.3,-1.3 2,-3.2 2,-5.6 l 0,-14.6 2.8,0 0,14.6 c 0,3.3 -0.9,5.8 -2.7,7.6 z"
       id="path49"
       inkscape:connector-curvature="0"
       style="fill:#6d6e71" /><path
       d="m 657,326.5 -14.9,-20 0,20 -2.8,0 0,-24.9 2.9,0 14.9,20 0,-20 2.8,0 0,24.9 -2.9,0 z"
       id="path51"
       inkscape:connector-curvature="0"
       style="fill:#6d6e71" /><path
       d="m 693.5,303.3 c 1.9,1.1 3.5,2.6 4.6,4.5 1.1,1.9 1.7,4 1.7,6.3 0,2.3 -0.6,4.4 -1.7,6.3 -1.1,1.9 -2.7,3.4 -4.6,4.5 -2,1.1 -4.2,1.6 -6.6,1.6 l -10,0 0,-24.9 10.1,0 c 2.4,0.1 4.6,0.6 6.5,1.7 z m -13.7,20.5 7.2,0 c 1.8,0 3.5,-0.4 5,-1.3 1.5,-0.8 2.7,-2 3.6,-3.5 0.9,-1.5 1.3,-3.1 1.3,-5 0,-1.8 -0.4,-3.5 -1.3,-4.9 -0.9,-1.5 -2.1,-2.6 -3.6,-3.5 -1.5,-0.9 -3.2,-1.3 -5,-1.3 l -7.1,0 0,19.5 z"
       id="path53"
       inkscape:connector-curvature="0"
       style="fill:#6d6e71" /><path
       d="m 715.9,320.3 -2.8,6.3 -3,0 11.1,-24.9 2.9,0 11.1,24.9 -3.1,0 -2.8,-6.3 -13.4,0 z m 6.8,-15.4 -5.5,12.6 11.1,0 -5.6,-12.6 z"
       id="path55"
       inkscape:connector-curvature="0"
       style="fill:#6d6e71" /><path
       d="m 754,304.4 0,22.1 -2.8,0 0,-22.1 -8.1,0 0,-2.7 19.1,0 0,2.7 -8.2,0 z"
       id="path57"
       inkscape:connector-curvature="0"
       style="fill:#6d6e71" /><path
       d="m 775.8,326.5 0,-24.9 2.8,0 0,24.9 -2.8,0 z"
       id="path59"
       inkscape:connector-curvature="0"
       style="fill:#6d6e71" /><path
       d="m 813.4,303.3 c 2,1.1 3.6,2.6 4.7,4.5 1.2,1.9 1.7,4 1.7,6.3 0,2.3 -0.6,4.4 -1.7,6.3 -1.2,1.9 -2.7,3.4 -4.7,4.6 -2,1.1 -4.2,1.7 -6.5,1.7 -2.4,0 -4.6,-0.6 -6.6,-1.7 -2,-1.1 -3.6,-2.6 -4.7,-4.6 -1.2,-1.9 -1.7,-4 -1.7,-6.3 0,-2.3 0.6,-4.4 1.7,-6.3 1.2,-1.9 2.7,-3.4 4.7,-4.5 2,-1.1 4.2,-1.7 6.6,-1.7 2.3,0 4.5,0.6 6.5,1.7 z m -11.6,2.3 c -1.5,0.9 -2.8,2.1 -3.7,3.6 -0.9,1.5 -1.4,3.1 -1.4,4.9 0,1.8 0.5,3.5 1.4,5 0.9,1.5 2.2,2.7 3.7,3.6 1.5,0.9 3.2,1.3 5.1,1.3 1.8,0 3.5,-0.4 5,-1.3 1.5,-0.9 2.8,-2.1 3.7,-3.6 0.9,-1.5 1.4,-3.2 1.4,-5 0,-1.8 -0.5,-3.4 -1.4,-4.9 -0.9,-1.5 -2.1,-2.7 -3.7,-3.5 -1.5,-0.9 -3.2,-1.3 -5,-1.3 -1.9,-0.1 -3.6,0.3 -5.1,1.2 z"
       id="path61"
       inkscape:connector-curvature="0"
       style="fill:#6d6e71" /><path
       d="m 852.6,326.5 -14.9,-20 0,20 -2.8,0 0,-24.9 2.9,0 14.9,20 0,-20 2.8,0 0,24.9 -2.9,0 z"
       id="path63"
       inkscape:connector-curvature="0"
       style="fill:#6d6e71" /></g><g
     id="g65"><linearGradient
       id="SVGID_1_"
       gradientUnits="userSpaceOnUse"
       x1="-7658.376"
       y1="-1137.2941"
       x2="-7610.187"
       y2="-1080.9456"
       gradientTransform="matrix(0.4226,-0.9063,0.9063,0.4226,4442.6831,-6372.6807)"><stop
         offset="0"
         style="stop-color:#F69923"
         id="stop68" /><stop
         offset="0.3123"
         style="stop-color:#F79A23"
         id="stop70" /><stop
         offset="0.8383"
         style="stop-color:#E97826"
         id="stop72" /></linearGradient><path
       d="m 192,60.2 c -5.4,3.2 -14.2,12.1 -24.9,25.1 l 9.8,18.4 c 6.8,-9.8 13.8,-18.6 20.8,-26.1 0.5,-0.6 0.8,-0.9 0.8,-0.9 -0.3,0.3 -0.5,0.6 -0.8,0.9 -2.3,2.5 -9.2,10.5 -19.5,26.5 10,-0.5 25.4,-2.5 37.9,-4.7 3.7,-20.9 -3.7,-30.5 -3.7,-30.5 0,0 -9.4,-15.2 -20.4,-8.7 z"
       id="path74"
       inkscape:connector-curvature="0"
       style="fill:url(#SVGID_1_)" /><path
       d="m 175.5,165.2 c 0.1,0 0.1,0 0.2,0 l -1.4,0.2 c -0.1,0 -0.2,0.1 -0.2,0.1 0.4,-0.2 0.9,-0.2 1.4,-0.3 z"
       id="path76"
       inkscape:connector-curvature="0"
       style="fill:none" /><path
       d="m 165.5,198.2 c -0.8,0.2 -1.6,0.3 -2.4,0.4 0.8,-0.1 1.6,-0.3 2.4,-0.4 z"
       id="path78"
       inkscape:connector-curvature="0"
       style="fill:none" /><path
       d="m 97.9,272.1 c 0.1,-0.3 0.2,-0.6 0.3,-0.8 2.1,-5.7 4.3,-11.2 6.4,-16.5 2.4,-6 4.7,-11.9 7,-17.5 2.4,-6 4.8,-11.7 7.2,-17.3 2.5,-5.8 4.9,-11.5 7.3,-16.9 2,-4.4 3.9,-8.7 5.8,-12.8 0.6,-1.4 1.3,-2.7 1.9,-4.1 1.2,-2.7 2.5,-5.3 3.7,-7.9 1.1,-2.4 2.2,-4.7 3.3,-6.9 0.4,-0.8 0.7,-1.5 1.1,-2.3 0.1,-0.1 0.1,-0.2 0.2,-0.4 l -1.2,0.1 -0.9,-1.9 c -0.1,0.2 -0.2,0.4 -0.3,0.5 -1.7,3.4 -3.4,6.8 -5.1,10.3 -1,2 -1.9,4 -2.9,6 -2.7,5.6 -5.3,11.2 -7.9,16.9 -2.6,5.7 -5.2,11.5 -7.7,17.3 -2.5,5.7 -4.9,11.4 -7.2,17 -2.4,5.7 -4.7,11.3 -6.9,16.9 -2.3,5.8 -4.6,11.6 -6.8,17.4 -0.5,1.3 -1,2.6 -1.5,3.9 -1.8,4.6 -3.5,9.2 -5.2,13.7 l 1.5,3 1.3,-0.1 c 0,-0.1 0.1,-0.3 0.1,-0.4 2.2,-5.8 4.3,-11.6 6.5,-17.2 z"
       id="path80"
       inkscape:connector-curvature="0"
       style="fill:none" /><path
       d="m 162.5,198.7 0,0 c 0,0 0,0 0,0 0,0 0,0 0,0 z"
       id="path82"
       inkscape:connector-curvature="0"
       style="fill:none" /><path
       d="m 159.2,214.8 c -1.2,0.2 -2.5,0.4 -3.8,0.7 0,0 0,0 0,0 0.7,-0.1 1.3,-0.2 2,-0.3 0.6,-0.2 1.2,-0.3 1.8,-0.4 z"
       id="path84"
       inkscape:connector-curvature="0"
       style="fill:#be202e" /><path
       d="m 159.2,214.8 c -1.2,0.2 -2.5,0.4 -3.8,0.7 0,0 0,0 0,0 0.7,-0.1 1.3,-0.2 2,-0.3 0.6,-0.2 1.2,-0.3 1.8,-0.4 z"
       id="path86"
       inkscape:connector-curvature="0"
       style="opacity:0.35;fill:#be202e" /><path
       d="m 162.5,198.7 c 0,0 0,0 0,0 0,0 0,0 0,0 0.2,0 0.4,0 0.6,-0.1 0.8,-0.1 1.6,-0.3 2.4,-0.4 -1,0.1 -2,0.3 -3,0.5 l 0,0 0,0 z"
       id="path88"
       inkscape:connector-curvature="0"
       style="fill:#be202e" /><path
       d="m 162.5,198.7 c 0,0 0,0 0,0 0,0 0,0 0,0 0.2,0 0.4,0 0.6,-0.1 0.8,-0.1 1.6,-0.3 2.4,-0.4 -1,0.1 -2,0.3 -3,0.5 l 0,0 0,0 z"
       id="path90"
       inkscape:connector-curvature="0"
       style="opacity:0.35;fill:#be202e" /><linearGradient
       id="SVGID_2_"
       gradientUnits="userSpaceOnUse"
       x1="-8015.0215"
       y1="-1143.5137"
       x2="-7671.2197"
       y2="-1143.5137"
       gradientTransform="matrix(0.4226,-0.9063,0.9063,0.4226,4442.6831,-6372.6807)"><stop
         offset="0.3233"
         style="stop-color:#9E2064"
         id="stop93" /><stop
         offset="0.6302"
         style="stop-color:#C92037"
         id="stop95" /><stop
         offset="0.7514"
         style="stop-color:#CD2335"
         id="stop97" /><stop
         offset="1"
         style="stop-color:#E97826"
         id="stop99" /></linearGradient><path
       d="m 148.1,151.2 c 3,-5.5 6,-11 9,-16.2 3.2,-5.5 6.3,-10.8 9.6,-15.9 0.2,-0.3 0.4,-0.6 0.6,-0.9 3.2,-5 6.4,-9.9 9.6,-14.5 l -9.8,-18.4 c -0.7,0.9 -1.5,1.8 -2.2,2.7 -2.8,3.5 -5.7,7.3 -8.7,11.3 -3.4,4.5 -6.8,9.3 -10.4,14.4 -3.3,4.7 -6.6,9.5 -9.9,14.6 -2.8,4.3 -5.6,8.7 -8.4,13.3 -0.1,0.2 -0.2,0.3 -0.3,0.5 l 12.7,25.1 c 2.7,-5.5 5.4,-10.8 8.2,-16 z"
       id="path101"
       inkscape:connector-curvature="0"
       style="fill:url(#SVGID_2_)" /><linearGradient
       id="SVGID_3_"
       gradientUnits="userSpaceOnUse"
       x1="-7973.52"
       y1="-1109.0308"
       x2="-7768.6475"
       y2="-1109.0308"
       gradientTransform="matrix(0.4226,-0.9063,0.9063,0.4226,4442.6831,-6372.6807)"><stop
         offset="0"
         style="stop-color:#282662"
         id="stop104" /><stop
         offset="9.548390e-02"
         style="stop-color:#662E8D"
         id="stop106" /><stop
         offset="0.7882"
         style="stop-color:#9F2064"
         id="stop108" /><stop
         offset="0.9487"
         style="stop-color:#CD2032"
         id="stop110" /></linearGradient><path
       d="m 90.3,292.4 c -1.7,4.6 -3.4,9.3 -5.1,14.1 0,0.1 0,0.1 -0.1,0.2 -0.2,0.7 -0.5,1.4 -0.7,2 -1.1,3.2 -2.1,6.1 -4.4,12.8 3.7,1.7 6.7,6.2 9.6,11.3 -0.3,-5.3 -2.5,-10.2 -6.6,-14.1 18.4,0.8 34.3,-3.8 42.5,-17.3 0.7,-1.2 1.4,-2.5 2,-3.8 -3.7,4.7 -8.4,6.7 -17.1,6.3 0,0 0,0 -0.1,0 0,0 0,0 0.1,0 12.8,-5.7 19.2,-11.2 24.9,-20.4 1.3,-2.2 2.7,-4.5 4,-7.1 -11.2,11.5 -24.2,14.8 -37.9,12.3 l -10.3,1.1 c -0.1,0.9 -0.5,1.8 -0.8,2.6 z"
       id="path112"
       inkscape:connector-curvature="0"
       style="fill:url(#SVGID_3_)" /><linearGradient
       id="SVGID_4_"
       gradientUnits="userSpaceOnUse"
       x1="-7995.7114"
       y1="-1146.7173"
       x2="-7651.9102"
       y2="-1146.7173"
       gradientTransform="matrix(0.4226,-0.9063,0.9063,0.4226,4442.6831,-6372.6807)"><stop
         offset="0.3233"
         style="stop-color:#9E2064"
         id="stop115" /><stop
         offset="0.6302"
         style="stop-color:#C92037"
         id="stop117" /><stop
         offset="0.7514"
         style="stop-color:#CD2335"
         id="stop119" /><stop
         offset="1"
         style="stop-color:#E97826"
         id="stop121" /></linearGradient><path
       d="m 95.1,269.5 c 2.2,-5.7 4.5,-11.5 6.8,-17.4 2.2,-5.6 4.5,-11.2 6.9,-16.9 2.4,-5.7 4.8,-11.3 7.2,-17 2.5,-5.8 5.1,-11.6 7.7,-17.3 2.6,-5.7 5.2,-11.3 7.9,-16.9 1,-2 1.9,-4 2.9,-6 1.7,-3.5 3.4,-6.9 5.1,-10.3 0.1,-0.2 0.2,-0.4 0.3,-0.5 L 127.2,142 c -0.2,0.3 -0.4,0.7 -0.6,1 -3,4.8 -5.9,9.8 -8.8,14.8 -2.9,5.1 -5.8,10.3 -8.6,15.5 -2.4,4.4 -4.7,8.9 -6.9,13.4 -0.5,0.9 -0.9,1.8 -1.3,2.7 -2.8,5.7 -5.3,11.2 -7.5,16.5 -2.6,6 -4.8,11.7 -6.8,17.1 -1.3,3.6 -2.5,7 -3.6,10.3 -0.9,2.8 -1.7,5.7 -2.5,8.5 -1.9,6.6 -3.5,13.3 -4.9,19.9 L 88.4,287 c 1.7,-4.5 3.4,-9.1 5.2,-13.7 0.5,-1.2 1,-2.5 1.5,-3.8 z"
       id="path123"
       inkscape:connector-curvature="0"
       style="fill:url(#SVGID_4_)" /><linearGradient
       id="SVGID_5_"
       gradientUnits="userSpaceOnUse"
       x1="-7970.6377"
       y1="-1142.0658"
       x2="-7789.96"
       y2="-1142.0658"
       gradientTransform="matrix(0.4226,-0.9063,0.9063,0.4226,4442.6831,-6372.6807)"><stop
         offset="0"
         style="stop-color:#282662"
         id="stop126" /><stop
         offset="9.548390e-02"
         style="stop-color:#662E8D"
         id="stop128" /><stop
         offset="0.7882"
         style="stop-color:#9F2064"
         id="stop130" /><stop
         offset="0.9487"
         style="stop-color:#CD2032"
         id="stop132" /></linearGradient><path
       d="m 75.5,262.7 c -1.6,8.1 -2.7,16.1 -3.3,24.1 0,0.3 0,0.6 -0.1,0.8 -4,-6.4 -14.6,-12.6 -14.6,-12.5 7.6,11.1 13.4,22 14.3,32.8 -4.1,0.8 -9.7,-0.4 -16.1,-2.7 6.7,6.2 11.8,7.9 13.8,8.4 -6.2,0.4 -12.6,4.6 -19.1,9.5 9.5,-3.9 17.2,-5.4 22.7,-4.2 -8.7,24.7 -17.5,51.9 -26.2,80.9 2.7,-0.8 4.3,-2.6 5.2,-5 1.6,-5.2 11.9,-39.6 28.1,-84.8 0.5,-1.3 0.9,-2.6 1.4,-3.9 0.1,-0.4 0.3,-0.7 0.4,-1.1 1.7,-4.7 3.5,-9.6 5.3,-14.5 0.4,-1.1 0.8,-2.2 1.3,-3.4 0,0 0,0 0,-0.1 L 75.9,261.8 c -0.3,0.4 -0.3,0.7 -0.4,0.9 z"
       id="path134"
       inkscape:connector-curvature="0"
       style="fill:url(#SVGID_5_)" /><linearGradient
       id="SVGID_6_"
       gradientUnits="userSpaceOnUse"
       x1="-7995.7114"
       y1="-1111.135"
       x2="-7651.9102"
       y2="-1111.135"
       gradientTransform="matrix(0.4226,-0.9063,0.9063,0.4226,4442.6831,-6372.6807)"><stop
         offset="0.3233"
         style="stop-color:#9E2064"
         id="stop137" /><stop
         offset="0.6302"
         style="stop-color:#C92037"
         id="stop139" /><stop
         offset="0.7514"
         style="stop-color:#CD2335"
         id="stop141" /><stop
         offset="1"
         style="stop-color:#E97826"
         id="stop143" /></linearGradient><path
       d="m 141.9,169.2 c -0.4,0.7 -0.7,1.5 -1.1,2.3 -1.1,2.3 -2.2,4.6 -3.3,6.9 -1.2,2.6 -2.4,5.2 -3.7,7.9 -0.6,1.3 -1.3,2.7 -1.9,4.1 -1.9,4.1 -3.8,8.4 -5.8,12.8 -2.4,5.4 -4.8,11 -7.3,16.9 -2.4,5.6 -4.8,11.3 -7.2,17.3 -2.3,5.7 -4.6,11.5 -7,17.5 -2.1,5.4 -4.2,10.9 -6.4,16.5 -0.1,0.3 -0.2,0.5 -0.3,0.8 -2.1,5.6 -4.3,11.4 -6.4,17.3 0,0.1 -0.1,0.3 -0.1,0.4 l 10.3,-1.1 c -0.2,0 -0.4,-0.1 -0.6,-0.1 12.3,-1.5 28.6,-10.7 39.1,-22 4.9,-5.2 9.3,-11.4 13.3,-18.6 3,-5.4 5.9,-11.3 8.6,-17.9 2.4,-5.8 4.6,-12 6.8,-18.7 -2.8,1.5 -6,2.6 -9.6,3.3 -0.6,0.1 -1.3,0.3 -1.9,0.4 -0.6,0.1 -1.3,0.2 -2,0.3 l 0,0 0,0 c 0,0 0,0 0,0 11.4,-4.4 18.7,-12.9 23.9,-23.3 -3,2.1 -7.9,4.7 -13.8,6 -0.8,0.2 -1.6,0.3 -2.4,0.4 -0.2,0 -0.4,0.1 -0.6,0.1 l 0,0 0,0 c 0,0 0,0 0,0 0,0 0,0 0,0 l 0,0 c 4,-1.7 7.3,-3.5 10.2,-5.7 0.6,-0.5 1.2,-1 1.8,-1.5 0.9,-0.8 1.7,-1.6 2.5,-2.4 0.5,-0.5 1,-1.1 1.5,-1.7 1.1,-1.4 2.2,-2.8 3.2,-4.4 0.3,-0.5 0.6,-1 0.9,-1.5 0.4,-0.7 0.7,-1.5 1.1,-2.2 1.6,-3.2 2.9,-6.1 3.9,-8.6 0.5,-1.3 1,-2.4 1.3,-3.5 0.2,-0.4 0.3,-0.8 0.4,-1.3 0.4,-1.2 0.7,-2.3 1,-3.2 0.4,-1.4 0.6,-2.5 0.8,-3.3 l 0,0 0,0 c -0.4,0.3 -0.8,0.6 -1.3,0.9 -3.5,2.1 -9.4,3.9 -14.2,4.8 l 9.4,-1 -9.4,1 c -0.1,0 -0.1,0 -0.2,0 -0.5,0.1 -1,0.2 -1.4,0.2 0.1,0 0.2,-0.1 0.2,-0.1 l -32.2,3.5 c 0,0.3 -0.1,0.4 -0.1,0.5 z"
       id="path145"
       inkscape:connector-curvature="0"
       style="fill:url(#SVGID_6_)" /><linearGradient
       id="SVGID_7_"
       gradientUnits="userSpaceOnUse"
       x1="-8017.0386"
       y1="-1112.902"
       x2="-7673.2373"
       y2="-1112.902"
       gradientTransform="matrix(0.4226,-0.9063,0.9063,0.4226,4442.6831,-6372.6807)"><stop
         offset="0.3233"
         style="stop-color:#9E2064"
         id="stop148" /><stop
         offset="0.6302"
         style="stop-color:#C92037"
         id="stop150" /><stop
         offset="0.7514"
         style="stop-color:#CD2335"
         id="stop152" /><stop
         offset="1"
         style="stop-color:#E97826"
         id="stop154" /></linearGradient><path
       d="m 178.1,104 c -2.9,4.4 -6,9.4 -9.4,15.1 -0.2,0.3 -0.4,0.6 -0.5,0.9 -2.9,4.9 -6,10.3 -9.2,16.2 -2.8,5.1 -5.7,10.5 -8.8,16.4 -2.6,5.1 -5.4,10.5 -8.2,16.3 l 32.2,-3.5 c 9.4,-4.3 13.6,-8.2 17.7,-13.9 1.1,-1.6 2.2,-3.2 3.3,-4.9 3.3,-5.2 6.6,-10.9 9.5,-16.5 2.8,-5.5 5.3,-10.9 7.2,-15.8 1.2,-3.1 2.2,-6 2.8,-8.5 0.6,-2.2 1,-4.4 1.4,-6.4 -12.6,2.1 -28,4.1 -38,4.6 z"
       id="path156"
       inkscape:connector-curvature="0"
       style="fill:url(#SVGID_7_)" /><path
       d="m 157.3,215.1 c -0.6,0.1 -1.3,0.2 -2,0.3 l 0,0 c 0.7,0 1.4,-0.1 2,-0.3 z"
       id="path158"
       inkscape:connector-curvature="0"
       style="fill:#be202e" /><path
       d="m 157.3,215.1 c -0.6,0.1 -1.3,0.2 -2,0.3 l 0,0 c 0.7,0 1.4,-0.1 2,-0.3 z"
       id="path160"
       inkscape:connector-curvature="0"
       style="opacity:0.35;fill:#be202e" /><linearGradient
       id="SVGID_8_"
       gradientUnits="userSpaceOnUse"
       x1="-7995.7114"
       y1="-1100.5521"
       x2="-7651.9102"
       y2="-1100.5521"
       gradientTransform="matrix(0.4226,-0.9063,0.9063,0.4226,4442.6831,-6372.6807)"><stop
         offset="0.3233"
         style="stop-color:#9E2064"
         id="stop163" /><stop
         offset="0.6302"
         style="stop-color:#C92037"
         id="stop165" /><stop
         offset="0.7514"
         style="stop-color:#CD2335"
         id="stop167" /><stop
         offset="1"
         style="stop-color:#E97826"
         id="stop169" /></linearGradient><path
       d="m 157.3,215.1 c -0.6,0.1 -1.3,0.2 -2,0.3 l 0,0 c 0.7,0 1.4,-0.1 2,-0.3 z"
       id="path171"
       inkscape:connector-curvature="0"
       style="fill:url(#SVGID_8_)" /><path
       d="m 162.5,198.7 c 0.2,0 0.4,-0.1 0.6,-0.1 -0.2,0 -0.4,0.1 -0.6,0.1 l 0,0 z"
       id="path173"
       inkscape:connector-curvature="0"
       style="fill:#be202e" /><path
       d="m 162.5,198.7 c 0.2,0 0.4,-0.1 0.6,-0.1 -0.2,0 -0.4,0.1 -0.6,0.1 l 0,0 z"
       id="path175"
       inkscape:connector-curvature="0"
       style="opacity:0.35;fill:#be202e" /><linearGradient
       id="SVGID_9_"
       gradientUnits="userSpaceOnUse"
       x1="-7995.7114"
       y1="-1101.7631"
       x2="-7651.9102"
       y2="-1101.7631"
       gradientTransform="matrix(0.4226,-0.9063,0.9063,0.4226,4442.6831,-6372.6807)"><stop
         offset="0.3233"
         style="stop-color:#9E2064"
         id="stop178" /><stop
         offset="0.6302"
         style="stop-color:#C92037"
         id="stop180" /><stop
         offset="0.7514"
         style="stop-color:#CD2335"
         id="stop182" /><stop
         offset="1"
         style="stop-color:#E97826"
         id="stop184" /></linearGradient><path
       d="m 162.5,198.7 c 0.2,0 0.4,-0.1 0.6,-0.1 -0.2,0 -0.4,0.1 -0.6,0.1 l 0,0 z"
       id="path186"
       inkscape:connector-curvature="0"
       style="fill:url(#SVGID_9_)" /><polygon
       points="162.5,198.7 162.5,198.7 162.5,198.7 162.5,198.7 162.5,198.7 "
       id="polygon188"
       style="fill:#be202e" /><polygon
       points="162.5,198.7 162.5,198.7 162.5,198.7 162.5,198.7 162.5,198.7 "
       id="polygon190"
       style="opacity:0.35;fill:#be202e" /><linearGradient
       id="SVGID_10_"
       gradientUnits="userSpaceOnUse"
       x1="-7802.5688"
       y1="-1102.006"
       x2="-7726.5776"
       y2="-1102.006"
       gradientTransform="matrix(0.4226,-0.9063,0.9063,0.4226,4442.6831,-6372.6807)"><stop
         offset="0.3233"
         style="stop-color:#9E2064"
         id="stop193" /><stop
         offset="0.6302"
         style="stop-color:#C92037"
         id="stop195" /><stop
         offset="0.7514"
         style="stop-color:#CD2335"
         id="stop197" /><stop
         offset="1"
         style="stop-color:#E97826"
         id="stop199" /></linearGradient><polygon
       points="162.5,198.7 162.5,198.7 162.5,198.7 162.5,198.7 162.5,198.7 "
       id="polygon201"
       style="fill:url(#SVGID_10_)" /></g><g
     id="g203"
     transform="matrix(0.53380721,0,0,0.53380721,-15.796507,260.85648)"><g
       id="g205"><path
         d="m 870.1,161.4 0,8.3 -2.3,0 0,-8.3 -2.9,0 0,-2 8.2,0 0,2 -3,0 z"
         id="path207"
         inkscape:connector-curvature="0"
         style="fill:#b0afb0" /><path
         d="m 884,163.2 -2.8,5.6 -1.4,0 -2.8,-5.6 0,6.5 -2.3,0 0,-10.3 3.1,0 2.7,5.7 2.7,-5.7 3.1,0 0,10.3 -2.3,0 0,-6.5 z"
         id="path209"
         inkscape:connector-curvature="0"
         style="fill:#b0afb0" /></g></g><g
     id="g211"
     transform="matrix(0.53380721,0,0,0.53380721,-15.796507,260.85648)"><path
       d="m 259.7,117.6 0,18.3 -2.4,0 0,-18.3 -6.7,0 0,-2.3 15.8,0 0,2.3 -6.7,0 z"
       id="path213"
       inkscape:connector-curvature="0"
       style="fill:#6d6e71" /><path
       d="m 292.6,135.9 0,-9.1 -12.4,0 0,9.1 -2.4,0 0,-20.6 2.4,0 0,9.3 12.4,0 0,-9.3 2.4,0 0,20.6 -2.4,0 z"
       id="path215"
       inkscape:connector-curvature="0"
       style="fill:#6d6e71" /><path
       d="m 311.4,117.6 0,6.8 10.4,0 0,2.3 -10.4,0 0,7.1 12,0 0,2.2 -14.4,0 0,-20.6 14,0 0,2.3 -11.6,0 z"
       id="path217"
       inkscape:connector-curvature="0"
       style="fill:#6d6e71" /></g><g
     id="g219"
     transform="matrix(0.53380721,0,0,0.53380721,-15.796507,260.85648)"><g
       id="g221"><path
         d="m 232.6,277.3 49.3,-117.8 9.5,0 49.3,117.8 -12.4,0 -15.3,-36.8 -53,0 -15.1,36.8 -12.3,0 z m 54.1,-104.2 -24.2,58.2 47.8,0 -23.6,-58.2 z"
         id="path223"
         inkscape:connector-curvature="0"
         style="fill:#d22128" /><path
         d="m 353.3,277.3 0,-117.8 48.8,0 c 20.2,0 34.8,18.7 34.8,37 0,19.2 -13.6,37.3 -33.8,37.3 l -38.3,0 0,43.5 -11.5,0 z m 11.5,-53.8 37.7,0 c 13.9,0 22.9,-12.8 22.9,-27 0,-14.8 -10.9,-26.7 -23.9,-26.7 l -36.7,0 0,53.7 z"
         id="path225"
         inkscape:connector-curvature="0"
         style="fill:#d22128" /><path
         d="m 430.5,277.3 49.3,-117.8 9.5,0 49.3,117.8 -12.6,0 -15.3,-36.8 -52.9,0 -15.1,36.8 -12.2,0 z m 54.1,-104.2 -24.2,58.2 47.8,0 -23.6,-58.2 z"
         id="path227"
         inkscape:connector-curvature="0"
         style="fill:#d22128" /><path
         d="m 594.2,158.8 c 20.9,0 36.2,10.6 43.5,25.7 l -9.3,5.6 c -7.5,-15.6 -22.1,-20.9 -34.8,-20.9 -28.2,0 -43.6,25.2 -43.6,48.9 0,26 19.1,49.6 44.1,49.6 13.3,0 28.9,-6.6 36.3,-21.9 l 9.6,5 c -7.6,17.6 -28.5,27.4 -46.6,27.4 -32.3,0 -55.1,-30.9 -55.1,-60.7 0,-28.3 20.4,-58.7 55.9,-58.7 z"
         id="path229"
         inkscape:connector-curvature="0"
         style="fill:#d22128" /><path
         d="m 749.1,159.5 0,117.8 -11.6,0 0,-55.1 -69.8,0 0,55.1 -11.4,0 0,-117.8 11.4,0 0,52.4 69.8,0 0,-52.4 11.6,0 z"
         id="path231"
         inkscape:connector-curvature="0"
         style="fill:#d22128" /><path
         d="m 854.8,267 0,10.3 -79.1,0 0,-117.8 77.6,0 0,10.3 -66.2,0 0,42.5 57.7,0 0,9.8 -57.7,0 0,44.9 67.7,0 z"
         id="path233"
         inkscape:connector-curvature="0"
         style="fill:#d22128" /></g></g><g
     id="g235"
     transform="matrix(0.53380721,0,0,0.53380721,-15.796507,260.85648)"><path
       d="m 243.6,302.2 c 1.4,0.4 2.6,1 3.7,1.7 l -1.2,2.7 c -1.1,-0.7 -2.2,-1.2 -3.4,-1.6 -1.2,-0.3 -2.4,-0.5 -3.4,-0.5 -1.6,0 -2.9,0.3 -3.8,0.9 -1,0.6 -1.4,1.4 -1.4,2.4 0,0.9 0.3,1.6 0.8,2.2 0.5,0.6 1.2,1 2,1.4 0.8,0.3 1.9,0.7 3.3,1.1 1.7,0.5 3.1,1.1 4.1,1.5 1,0.5 1.9,1.2 2.7,2.1 0.7,0.9 1.1,2.1 1.1,3.7 0,1.4 -0.4,2.6 -1.1,3.6 -0.7,1 -1.8,1.8 -3.2,2.4 -1.4,0.6 -2.9,0.9 -4.7,0.9 -1.8,0 -3.5,-0.3 -5.2,-1 -1.7,-0.7 -3.1,-1.6 -4.3,-2.8 l 1.3,-2.5 c 1.1,1.1 2.4,2 3.9,2.6 1.5,0.6 2.9,0.9 4.3,0.9 1.8,0 3.2,-0.3 4.3,-1 1,-0.7 1.6,-1.6 1.6,-2.8 0,-0.9 -0.3,-1.7 -0.8,-2.3 -0.5,-0.6 -1.2,-1.1 -2,-1.4 -0.8,-0.3 -1.9,-0.7 -3.3,-1.1 -1.7,-0.5 -3,-1 -4.1,-1.4 -1,-0.5 -1.9,-1.1 -2.7,-2.1 -0.7,-0.9 -1.1,-2.1 -1.1,-3.6 0,-1.3 0.4,-2.4 1.1,-3.4 0.7,-1 1.7,-1.7 3,-2.3 1.3,-0.5 2.8,-0.8 4.5,-0.8 1.2,-0.1 2.6,0.1 4,0.5 z"
       id="path237"
       inkscape:connector-curvature="0"
       style="fill:#6d6e71" /><path
       d="m 280.5,303.3 c 2,1.1 3.6,2.6 4.7,4.5 1.2,1.9 1.7,4 1.7,6.3 0,2.3 -0.6,4.4 -1.7,6.3 -1.2,1.9 -2.7,3.4 -4.7,4.6 -2,1.1 -4.2,1.7 -6.5,1.7 -2.4,0 -4.6,-0.6 -6.6,-1.7 -2,-1.1 -3.6,-2.6 -4.7,-4.6 -1.2,-1.9 -1.7,-4 -1.7,-6.3 0,-2.3 0.6,-4.4 1.7,-6.3 1.2,-1.9 2.7,-3.4 4.7,-4.5 2,-1.1 4.2,-1.7 6.6,-1.7 2.3,0 4.5,0.6 6.5,1.7 z m -11.6,2.3 c -1.5,0.9 -2.8,2.1 -3.7,3.6 -0.9,1.5 -1.4,3.1 -1.4,4.9 0,1.8 0.5,3.5 1.4,5 0.9,1.5 2.2,2.7 3.7,3.6 1.5,0.9 3.2,1.3 5.1,1.3 1.8,0 3.5,-0.4 5,-1.3 1.5,-0.9 2.8,-2.1 3.7,-3.6 0.9,-1.5 1.4,-3.2 1.4,-5 0,-1.8 -0.5,-3.4 -1.4,-4.9 -0.9,-1.5 -2.1,-2.7 -3.7,-3.5 -1.5,-0.9 -3.2,-1.3 -5,-1.3 -1.8,-0.1 -3.5,0.3 -5.1,1.2 z"
       id="path239"
       inkscape:connector-curvature="0"
       style="fill:#6d6e71" /><path
       d="m 304.9,304.4 0,8.7 11.6,0 0,2.7 -11.6,0 0,10.6 -2.9,0 0,-24.9 15.8,0 0,2.7 -12.9,0 z"
       id="path241"
       inkscape:connector-curvature="0"
       style="fill:#6d6e71" /><path
       d="m 340.9,304.4 0,22.1 -2.8,0 0,-22.1 -8.1,0 0,-2.7 19,0 0,2.7 -8.1,0 z"
       id="path243"
       inkscape:connector-curvature="0"
       style="fill:#6d6e71" /><path
       d="m 385.8,326.5 -6.7,-20.9 -6.8,20.9 -2.9,0 -8.3,-24.9 3.1,0 6.8,21.6 6.7,-21.5 2.8,0 6.8,21.6 6.7,-21.6 2.9,0 -8.3,24.9 -2.8,0 z"
       id="path245"
       inkscape:connector-curvature="0"
       style="fill:#6d6e71" /><path
       d="m 411.2,320.3 -2.8,6.3 -3,0 11.1,-24.9 2.9,0 11.1,24.9 -3.1,0 -2.8,-6.3 -13.4,0 z m 6.8,-15.4 -5.5,12.6 11.1,0 -5.6,-12.6 z"
       id="path247"
       inkscape:connector-curvature="0"
       style="fill:#6d6e71" /><path
       d="m 455.3,318.6 c -0.7,0 -1.3,0.1 -1.7,0.1 l -6.6,0 0,7.9 -2.8,0 0,-24.9 9.4,0 c 3.1,0 5.5,0.7 7.2,2.2 1.7,1.5 2.6,3.5 2.6,6.2 0,2 -0.5,3.7 -1.4,5.1 -1,1.4 -2.3,2.4 -4.1,3 l 5.8,8.4 -3.2,0 -5.2,-8 z m 3.6,-4.1 c 1.2,-1 1.8,-2.5 1.8,-4.4 0,-1.9 -0.6,-3.3 -1.8,-4.2 -1.2,-1 -3,-1.4 -5.2,-1.4 l -6.6,0 0,11.5 6.6,0 c 2.2,0 4,-0.5 5.2,-1.5 z"
       id="path249"
       inkscape:connector-curvature="0"
       style="fill:#6d6e71" /><path
       d="m 482.2,304.4 0,8.2 12.5,0 0,2.7 -12.5,0 0,8.5 14.5,0 0,2.7 -17.3,0 0,-24.9 16.9,0 0,2.7 -14.1,0 z"
       id="path251"
       inkscape:connector-curvature="0"
       style="fill:#6d6e71" /><path
       d="m 536.3,304.4 0,8.7 11.6,0 0,2.7 -11.6,0 0,10.6 -2.8,0 0,-24.9 15.8,0 0,2.7 -13,0 z"
       id="path253"
       inkscape:connector-curvature="0"
       style="fill:#6d6e71" /><path
       d="m 580.7,303.3 c 2,1.1 3.6,2.6 4.7,4.5 1.2,1.9 1.7,4 1.7,6.3 0,2.3 -0.6,4.4 -1.7,6.3 -1.2,1.9 -2.7,3.4 -4.7,4.6 -2,1.1 -4.2,1.7 -6.5,1.7 -2.4,0 -4.6,-0.6 -6.6,-1.7 -2,-1.1 -3.6,-2.6 -4.7,-4.6 -1.2,-1.9 -1.7,-4 -1.7,-6.3 0,-2.3 0.6,-4.4 1.7,-6.3 1.2,-1.9 2.7,-3.4 4.7,-4.5 2,-1.1 4.2,-1.7 6.6,-1.7 2.4,0 4.6,0.6 6.5,1.7 z m -11.5,2.3 c -1.5,0.9 -2.8,2.1 -3.7,3.6 -0.9,1.5 -1.4,3.1 -1.4,4.9 0,1.8 0.5,3.5 1.4,5 0.9,1.5 2.2,2.7 3.7,3.6 1.5,0.9 3.2,1.3 5.1,1.3 1.8,0 3.5,-0.4 5,-1.3 1.5,-0.9 2.8,-2.1 3.7,-3.6 0.9,-1.5 1.4,-3.2 1.4,-5 0,-1.8 -0.5,-3.4 -1.4,-4.9 -0.9,-1.5 -2.1,-2.7 -3.7,-3.5 -1.5,-0.9 -3.2,-1.3 -5,-1.3 -1.9,-0.1 -3.6,0.3 -5.1,1.2 z"
       id="path255"
       inkscape:connector-curvature="0"
       style="fill:#6d6e71" /><path
       d="m 619.9,323.9 c -1.8,1.8 -4.4,2.7 -7.6,2.7 -3.3,0 -5.8,-0.9 -7.7,-2.7 -1.9,-1.8 -2.8,-4.4 -2.8,-7.6 l 0,-14.6 2.8,0 0,14.6 c 0,2.4 0.7,4.3 2,5.6 1.4,1.3 3.2,2 5.6,2 2.4,0 4.2,-0.7 5.6,-2 1.3,-1.3 2,-3.2 2,-5.6 l 0,-14.6 2.8,0 0,14.6 c 0,3.3 -0.9,5.8 -2.7,7.6 z"
       id="path257"
       inkscape:connector-curvature="0"
       style="fill:#6d6e71" /><path
       d="m 657,326.5 -14.9,-20 0,20 -2.8,0 0,-24.9 2.9,0 14.9,20 0,-20 2.8,0 0,24.9 -2.9,0 z"
       id="path259"
       inkscape:connector-curvature="0"
       style="fill:#6d6e71" /><path
       d="m 693.5,303.3 c 1.9,1.1 3.5,2.6 4.6,4.5 1.1,1.9 1.7,4 1.7,6.3 0,2.3 -0.6,4.4 -1.7,6.3 -1.1,1.9 -2.7,3.4 -4.6,4.5 -2,1.1 -4.2,1.6 -6.6,1.6 l -10,0 0,-24.9 10.1,0 c 2.4,0.1 4.6,0.6 6.5,1.7 z m -13.7,20.5 7.2,0 c 1.8,0 3.5,-0.4 5,-1.3 1.5,-0.8 2.7,-2 3.6,-3.5 0.9,-1.5 1.3,-3.1 1.3,-5 0,-1.8 -0.4,-3.5 -1.3,-4.9 -0.9,-1.5 -2.1,-2.6 -3.6,-3.5 -1.5,-0.9 -3.2,-1.3 -5,-1.3 l -7.1,0 0,19.5 z"
       id="path261"
       inkscape:connector-curvature="0"
       style="fill:#6d6e71" /><path
       d="m 715.9,320.3 -2.8,6.3 -3,0 11.1,-24.9 2.9,0 11.1,24.9 -3.1,0 -2.8,-6.3 -13.4,0 z m 6.8,-15.4 -5.5,12.6 11.1,0 -5.6,-12.6 z"
       id="path263"
       inkscape:connector-curvature="0"
       style="fill:#6d6e71" /><path
       d="m 754,304.4 0,22.1 -2.8,0 0,-22.1 -8.1,0 0,-2.7 19.1,0 0,2.7 -8.2,0 z"
       id="path265"
       inkscape:connector-curvature="0"
       style="fill:#6d6e71" /><path
       d="m 775.8,326.5 0,-24.9 2.8,0 0,24.9 -2.8,0 z"
       id="path267"
       inkscape:connector-curvature="0"
       style="fill:#6d6e71" /><path
       d="m 813.4,303.3 c 2,1.1 3.6,2.6 4.7,4.5 1.2,1.9 1.7,4 1.7,6.3 0,2.3 -0.6,4.4 -1.7,6.3 -1.2,1.9 -2.7,3.4 -4.7,4.6 -2,1.1 -4.2,1.7 -6.5,1.7 -2.4,0 -4.6,-0.6 -6.6,-1.7 -2,-1.1 -3.6,-2.6 -4.7,-4.6 -1.2,-1.9 -1.7,-4 -1.7,-6.3 0,-2.3 0.6,-4.4 1.7,-6.3 1.2,-1.9 2.7,-3.4 4.7,-4.5 2,-1.1 4.2,-1.7 6.6,-1.7 2.3,0 4.5,0.6 6.5,1.7 z m -11.6,2.3 c -1.5,0.9 -2.8,2.1 -3.7,3.6 -0.9,1.5 -1.4,3.1 -1.4,4.9 0,1.8 0.5,3.5 1.4,5 0.9,1.5 2.2,2.7 3.7,3.6 1.5,0.9 3.2,1.3 5.1,1.3 1.8,0 3.5,-0.4 5,-1.3 1.5,-0.9 2.8,-2.1 3.7,-3.6 0.9,-1.5 1.4,-3.2 1.4,-5 0,-1.8 -0.5,-3.4 -1.4,-4.9 -0.9,-1.5 -2.1,-2.7 -3.7,-3.5 -1.5,-0.9 -3.2,-1.3 -5,-1.3 -1.9,-0.1 -3.6,0.3 -5.1,1.2 z"
       id="path269"
       inkscape:connector-curvature="0"
       style="fill:#6d6e71" /><path
       d="m 852.6,326.5 -14.9,-20 0,20 -2.8,0 0,-24.9 2.9,0 14.9,20 0,-20 2.8,0 0,24.9 -2.9,0 z"
       id="path271"
       inkscape:connector-curvature="0"
       style="fill:#6d6e71" /></g><g
     id="g273"><linearGradient
       id="SVGID_11_"
       gradientUnits="userSpaceOnUse"
       x1="-7658.376"
       y1="-1137.2941"
       x2="-7610.187"
       y2="-1080.9456"
       gradientTransform="matrix(0.4226,-0.9063,0.9063,0.4226,4442.6831,-6372.6807)"><stop
         offset="0"
         style="stop-color:#F69923"
         id="stop276" /><stop
         offset="0.3123"
         style="stop-color:#F79A23"
         id="stop278" /><stop
         offset="0.8383"
         style="stop-color:#E97826"
         id="stop280" /></linearGradient><path
       d="m 192,60.2 c -5.4,3.2 -14.2,12.1 -24.9,25.1 l 9.8,18.4 c 6.8,-9.8 13.8,-18.6 20.8,-26.1 0.5,-0.6 0.8,-0.9 0.8,-0.9 -0.3,0.3 -0.5,0.6 -0.8,0.9 -2.3,2.5 -9.2,10.5 -19.5,26.5 10,-0.5 25.4,-2.5 37.9,-4.7 3.7,-20.9 -3.7,-30.5 -3.7,-30.5 0,0 -9.4,-15.2 -20.4,-8.7 z"
       id="path282"
       inkscape:connector-curvature="0"
       style="fill:url(#SVGID_11_)" /><path
       d="m 175.5,165.2 c 0.1,0 0.1,0 0.2,0 l -1.4,0.2 c -0.1,0 -0.2,0.1 -0.2,0.1 0.4,-0.2 0.9,-0.2 1.4,-0.3 z"
       id="path284"
       inkscape:connector-curvature="0"
       style="fill:none" /><path
       d="m 165.5,198.2 c -0.8,0.2 -1.6,0.3 -2.4,0.4 0.8,-0.1 1.6,-0.3 2.4,-0.4 z"
       id="path286"
       inkscape:connector-curvature="0"
       style="fill:none" /><path
       d="m 97.9,272.1 c 0.1,-0.3 0.2,-0.6 0.3,-0.8 2.1,-5.7 4.3,-11.2 6.4,-16.5 2.4,-6 4.7,-11.9 7,-17.5 2.4,-6 4.8,-11.7 7.2,-17.3 2.5,-5.8 4.9,-11.5 7.3,-16.9 2,-4.4 3.9,-8.7 5.8,-12.8 0.6,-1.4 1.3,-2.7 1.9,-4.1 1.2,-2.7 2.5,-5.3 3.7,-7.9 1.1,-2.4 2.2,-4.7 3.3,-6.9 0.4,-0.8 0.7,-1.5 1.1,-2.3 0.1,-0.1 0.1,-0.2 0.2,-0.4 l -1.2,0.1 -0.9,-1.9 c -0.1,0.2 -0.2,0.4 -0.3,0.5 -1.7,3.4 -3.4,6.8 -5.1,10.3 -1,2 -1.9,4 -2.9,6 -2.7,5.6 -5.3,11.2 -7.9,16.9 -2.6,5.7 -5.2,11.5 -7.7,17.3 -2.5,5.7 -4.9,11.4 -7.2,17 -2.4,5.7 -4.7,11.3 -6.9,16.9 -2.3,5.8 -4.6,11.6 -6.8,17.4 -0.5,1.3 -1,2.6 -1.5,3.9 -1.8,4.6 -3.5,9.2 -5.2,13.7 l 1.5,3 1.3,-0.1 c 0,-0.1 0.1,-0.3 0.1,-0.4 2.2,-5.8 4.3,-11.6 6.5,-17.2 z"
       id="path288"
       inkscape:connector-curvature="0"
       style="fill:none" /><path
       d="m 162.5,198.7 0,0 c 0,0 0,0 0,0 0,0 0,0 0,0 z"
       id="path290"
       inkscape:connector-curvature="0"
       style="fill:none" /><path
       d="m 159.2,214.8 c -1.2,0.2 -2.5,0.4 -3.8,0.7 0,0 0,0 0,0 0.7,-0.1 1.3,-0.2 2,-0.3 0.6,-0.2 1.2,-0.3 1.8,-0.4 z"
       id="path292"
       inkscape:connector-curvature="0"
       style="fill:#be202e" /><path
       d="m 159.2,214.8 c -1.2,0.2 -2.5,0.4 -3.8,0.7 0,0 0,0 0,0 0.7,-0.1 1.3,-0.2 2,-0.3 0.6,-0.2 1.2,-0.3 1.8,-0.4 z"
       id="path294"
       inkscape:connector-curvature="0"
       style="opacity:0.35;fill:#be202e" /><path
       d="m 162.5,198.7 c 0,0 0,0 0,0 0,0 0,0 0,0 0.2,0 0.4,0 0.6,-0.1 0.8,-0.1 1.6,-0.3 2.4,-0.4 -1,0.1 -2,0.3 -3,0.5 l 0,0 0,0 z"
       id="path296"
       inkscape:connector-curvature="0"
       style="fill:#be202e" /><path
       d="m 162.5,198.7 c 0,0 0,0 0,0 0,0 0,0 0,0 0.2,0 0.4,0 0.6,-0.1 0.8,-0.1 1.6,-0.3 2.4,-0.4 -1,0.1 -2,0.3 -3,0.5 l 0,0 0,0 z"
       id="path298"
       inkscape:connector-curvature="0"
       style="opacity:0.35;fill:#be202e" /><linearGradient
       id="SVGID_12_"
       gradientUnits="userSpaceOnUse"
       x1="-8015.0215"
       y1="-1143.5137"
       x2="-7671.2197"
       y2="-1143.5137"
       gradientTransform="matrix(0.4226,-0.9063,0.9063,0.4226,4442.6831,-6372.6807)"><stop
         offset="0.3233"
         style="stop-color:#9E2064"
         id="stop301" /><stop
         offset="0.6302"
         style="stop-color:#C92037"
         id="stop303" /><stop
         offset="0.7514"
         style="stop-color:#CD2335"
         id="stop305" /><stop
         offset="1"
         style="stop-color:#E97826"
         id="stop307" /></linearGradient><path
       d="m 148.1,151.2 c 3,-5.5 6,-11 9,-16.2 3.2,-5.5 6.3,-10.8 9.6,-15.9 0.2,-0.3 0.4,-0.6 0.6,-0.9 3.2,-5 6.4,-9.9 9.6,-14.5 l -9.8,-18.4 c -0.7,0.9 -1.5,1.8 -2.2,2.7 -2.8,3.5 -5.7,7.3 -8.7,11.3 -3.4,4.5 -6.8,9.3 -10.4,14.4 -3.3,4.7 -6.6,9.5 -9.9,14.6 -2.8,4.3 -5.6,8.7 -8.4,13.3 -0.1,0.2 -0.2,0.3 -0.3,0.5 l 12.7,25.1 c 2.7,-5.5 5.4,-10.8 8.2,-16 z"
       id="path309"
       inkscape:connector-curvature="0"
       style="fill:url(#SVGID_12_)" /><linearGradient
       id="SVGID_13_"
       gradientUnits="userSpaceOnUse"
       x1="-7973.52"
       y1="-1109.0308"
       x2="-7768.6475"
       y2="-1109.0308"
       gradientTransform="matrix(0.4226,-0.9063,0.9063,0.4226,4442.6831,-6372.6807)"><stop
         offset="0"
         style="stop-color:#282662"
         id="stop312" /><stop
         offset="9.548390e-02"
         style="stop-color:#662E8D"
         id="stop314" /><stop
         offset="0.7882"
         style="stop-color:#9F2064"
         id="stop316" /><stop
         offset="0.9487"
         style="stop-color:#CD2032"
         id="stop318" /></linearGradient><path
       d="m 90.3,292.4 c -1.7,4.6 -3.4,9.3 -5.1,14.1 0,0.1 0,0.1 -0.1,0.2 -0.2,0.7 -0.5,1.4 -0.7,2 -1.1,3.2 -2.1,6.1 -4.4,12.8 3.7,1.7 6.7,6.2 9.6,11.3 -0.3,-5.3 -2.5,-10.2 -6.6,-14.1 18.4,0.8 34.3,-3.8 42.5,-17.3 0.7,-1.2 1.4,-2.5 2,-3.8 -3.7,4.7 -8.4,6.7 -17.1,6.3 0,0 0,0 -0.1,0 0,0 0,0 0.1,0 12.8,-5.7 19.2,-11.2 24.9,-20.4 1.3,-2.2 2.7,-4.5 4,-7.1 -11.2,11.5 -24.2,14.8 -37.9,12.3 l -10.3,1.1 c -0.1,0.9 -0.5,1.8 -0.8,2.6 z"
       id="path320"
       inkscape:connector-curvature="0"
       style="fill:url(#SVGID_13_)" /><linearGradient
       id="SVGID_14_"
       gradientUnits="userSpaceOnUse"
       x1="-7995.7114"
       y1="-1146.7173"
       x2="-7651.9102"
       y2="-1146.7173"
       gradientTransform="matrix(0.4226,-0.9063,0.9063,0.4226,4442.6831,-6372.6807)"><stop
         offset="0.3233"
         style="stop-color:#9E2064"
         id="stop323" /><stop
         offset="0.6302"
         style="stop-color:#C92037"
         id="stop325" /><stop
         offset="0.7514"
         style="stop-color:#CD2335"
         id="stop327" /><stop
         offset="1"
         style="stop-color:#E97826"
         id="stop329" /></linearGradient><path
       d="m 95.1,269.5 c 2.2,-5.7 4.5,-11.5 6.8,-17.4 2.2,-5.6 4.5,-11.2 6.9,-16.9 2.4,-5.7 4.8,-11.3 7.2,-17 2.5,-5.8 5.1,-11.6 7.7,-17.3 2.6,-5.7 5.2,-11.3 7.9,-16.9 1,-2 1.9,-4 2.9,-6 1.7,-3.5 3.4,-6.9 5.1,-10.3 0.1,-0.2 0.2,-0.4 0.3,-0.5 L 127.2,142 c -0.2,0.3 -0.4,0.7 -0.6,1 -3,4.8 -5.9,9.8 -8.8,14.8 -2.9,5.1 -5.8,10.3 -8.6,15.5 -2.4,4.4 -4.7,8.9 -6.9,13.4 -0.5,0.9 -0.9,1.8 -1.3,2.7 -2.8,5.7 -5.3,11.2 -7.5,16.5 -2.6,6 -4.8,11.7 -6.8,17.1 -1.3,3.6 -2.5,7 -3.6,10.3 -0.9,2.8 -1.7,5.7 -2.5,8.5 -1.9,6.6 -3.5,13.3 -4.9,19.9 L 88.4,287 c 1.7,-4.5 3.4,-9.1 5.2,-13.7 0.5,-1.2 1,-2.5 1.5,-3.8 z"
       id="path331"
       inkscape:connector-curvature="0"
       style="fill:url(#SVGID_14_)" /><linearGradient
       id="SVGID_15_"
       gradientUnits="userSpaceOnUse"
       x1="-7970.6377"
       y1="-1142.0658"
       x2="-7789.96"
       y2="-1142.0658"
       gradientTransform="matrix(0.4226,-0.9063,0.9063,0.4226,4442.6831,-6372.6807)"><stop
         offset="0"
         style="stop-color:#282662"
         id="stop334" /><stop
         offset="9.548390e-02"
         style="stop-color:#662E8D"
         id="stop336" /><stop
         offset="0.7882"
         style="stop-color:#9F2064"
         id="stop338" /><stop
         offset="0.9487"
         style="stop-color:#CD2032"
         id="stop340" /></linearGradient><path
       d="m 75.5,262.7 c -1.6,8.1 -2.7,16.1 -3.3,24.1 0,0.3 0,0.6 -0.1,0.8 -4,-6.4 -14.6,-12.6 -14.6,-12.5 7.6,11.1 13.4,22 14.3,32.8 -4.1,0.8 -9.7,-0.4 -16.1,-2.7 6.7,6.2 11.8,7.9 13.8,8.4 -6.2,0.4 -12.6,4.6 -19.1,9.5 9.5,-3.9 17.2,-5.4 22.7,-4.2 -8.7,24.7 -17.5,51.9 -26.2,80.9 2.7,-0.8 4.3,-2.6 5.2,-5 1.6,-5.2 11.9,-39.6 28.1,-84.8 0.5,-1.3 0.9,-2.6 1.4,-3.9 0.1,-0.4 0.3,-0.7 0.4,-1.1 1.7,-4.7 3.5,-9.6 5.3,-14.5 0.4,-1.1 0.8,-2.2 1.3,-3.4 0,0 0,0 0,-0.1 L 75.9,261.8 c -0.3,0.4 -0.3,0.7 -0.4,0.9 z"
       id="path342"
       inkscape:connector-curvature="0"
       style="fill:url(#SVGID_15_)" /><linearGradient
       id="SVGID_16_"
       gradientUnits="userSpaceOnUse"
       x1="-7995.7114"
       y1="-1111.135"
       x2="-7651.9102"
       y2="-1111.135"
       gradientTransform="matrix(0.4226,-0.9063,0.9063,0.4226,4442.6831,-6372.6807)"><stop
         offset="0.3233"
         style="stop-color:#9E2064"
         id="stop345" /><stop
         offset="0.6302"
         style="stop-color:#C92037"
         id="stop347" /><stop
         offset="0.7514"
         style="stop-color:#CD2335"
         id="stop349" /><stop
         offset="1"
         style="stop-color:#E97826"
         id="stop351" /></linearGradient><path
       d="m 141.9,169.2 c -0.4,0.7 -0.7,1.5 -1.1,2.3 -1.1,2.3 -2.2,4.6 -3.3,6.9 -1.2,2.6 -2.4,5.2 -3.7,7.9 -0.6,1.3 -1.3,2.7 -1.9,4.1 -1.9,4.1 -3.8,8.4 -5.8,12.8 -2.4,5.4 -4.8,11 -7.3,16.9 -2.4,5.6 -4.8,11.3 -7.2,17.3 -2.3,5.7 -4.6,11.5 -7,17.5 -2.1,5.4 -4.2,10.9 -6.4,16.5 -0.1,0.3 -0.2,0.5 -0.3,0.8 -2.1,5.6 -4.3,11.4 -6.4,17.3 0,0.1 -0.1,0.3 -0.1,0.4 l 10.3,-1.1 c -0.2,0 -0.4,-0.1 -0.6,-0.1 12.3,-1.5 28.6,-10.7 39.1,-22 4.9,-5.2 9.3,-11.4 13.3,-18.6 3,-5.4 5.9,-11.3 8.6,-17.9 2.4,-5.8 4.6,-12 6.8,-18.7 -2.8,1.5 -6,2.6 -9.6,3.3 -0.6,0.1 -1.3,0.3 -1.9,0.4 -0.6,0.1 -1.3,0.2 -2,0.3 l 0,0 0,0 c 0,0 0,0 0,0 11.4,-4.4 18.7,-12.9 23.9,-23.3 -3,2.1 -7.9,4.7 -13.8,6 -0.8,0.2 -1.6,0.3 -2.4,0.4 -0.2,0 -0.4,0.1 -0.6,0.1 l 0,0 0,0 c 0,0 0,0 0,0 0,0 0,0 0,0 l 0,0 c 4,-1.7 7.3,-3.5 10.2,-5.7 0.6,-0.5 1.2,-1 1.8,-1.5 0.9,-0.8 1.7,-1.6 2.5,-2.4 0.5,-0.5 1,-1.1 1.5,-1.7 1.1,-1.4 2.2,-2.8 3.2,-4.4 0.3,-0.5 0.6,-1 0.9,-1.5 0.4,-0.7 0.7,-1.5 1.1,-2.2 1.6,-3.2 2.9,-6.1 3.9,-8.6 0.5,-1.3 1,-2.4 1.3,-3.5 0.2,-0.4 0.3,-0.8 0.4,-1.3 0.4,-1.2 0.7,-2.3 1,-3.2 0.4,-1.4 0.6,-2.5 0.8,-3.3 l 0,0 0,0 c -0.4,0.3 -0.8,0.6 -1.3,0.9 -3.5,2.1 -9.4,3.9 -14.2,4.8 l 9.4,-1 -9.4,1 c -0.1,0 -0.1,0 -0.2,0 -0.5,0.1 -1,0.2 -1.4,0.2 0.1,0 0.2,-0.1 0.2,-0.1 l -32.2,3.5 c 0,0.3 -0.1,0.4 -0.1,0.5 z"
       id="path353"
       inkscape:connector-curvature="0"
       style="fill:url(#SVGID_16_)" /><linearGradient
       id="SVGID_17_"
       gradientUnits="userSpaceOnUse"
       x1="-8017.0386"
       y1="-1112.902"
       x2="-7673.2373"
       y2="-1112.902"
       gradientTransform="matrix(0.4226,-0.9063,0.9063,0.4226,4442.6831,-6372.6807)"><stop
         offset="0.3233"
         style="stop-color:#9E2064"
         id="stop356" /><stop
         offset="0.6302"
         style="stop-color:#C92037"
         id="stop358" /><stop
         offset="0.7514"
         style="stop-color:#CD2335"
         id="stop360" /><stop
         offset="1"
         style="stop-color:#E97826"
         id="stop362" /></linearGradient><path
       d="m 178.1,104 c -2.9,4.4 -6,9.4 -9.4,15.1 -0.2,0.3 -0.4,0.6 -0.5,0.9 -2.9,4.9 -6,10.3 -9.2,16.2 -2.8,5.1 -5.7,10.5 -8.8,16.4 -2.6,5.1 -5.4,10.5 -8.2,16.3 l 32.2,-3.5 c 9.4,-4.3 13.6,-8.2 17.7,-13.9 1.1,-1.6 2.2,-3.2 3.3,-4.9 3.3,-5.2 6.6,-10.9 9.5,-16.5 2.8,-5.5 5.3,-10.9 7.2,-15.8 1.2,-3.1 2.2,-6 2.8,-8.5 0.6,-2.2 1,-4.4 1.4,-6.4 -12.6,2.1 -28,4.1 -38,4.6 z"
       id="path364"
       inkscape:connector-curvature="0"
       style="fill:url(#SVGID_17_)" /><path
       d="m 157.3,215.1 c -0.6,0.1 -1.3,0.2 -2,0.3 l 0,0 c 0.7,0 1.4,-0.1 2,-0.3 z"
       id="path366"
       inkscape:connector-curvature="0"
       style="fill:#be202e" /><path
       d="m 157.3,215.1 c -0.6,0.1 -1.3,0.2 -2,0.3 l 0,0 c 0.7,0 1.4,-0.1 2,-0.3 z"
       id="path368"
       inkscape:connector-curvature="0"
       style="opacity:0.35;fill:#be202e" /><linearGradient
       id="SVGID_18_"
       gradientUnits="userSpaceOnUse"
       x1="-7995.7114"
       y1="-1100.5521"
       x2="-7651.9102"
       y2="-1100.5521"
       gradientTransform="matrix(0.4226,-0.9063,0.9063,0.4226,4442.6831,-6372.6807)"><stop
         offset="0.3233"
         style="stop-color:#9E2064"
         id="stop371" /><stop
         offset="0.6302"
         style="stop-color:#C92037"
         id="stop373" /><stop
         offset="0.7514"
         style="stop-color:#CD2335"
         id="stop375" /><stop
         offset="1"
         style="stop-color:#E97826"
         id="stop377" /></linearGradient><path
       d="m 157.3,215.1 c -0.6,0.1 -1.3,0.2 -2,0.3 l 0,0 c 0.7,0 1.4,-0.1 2,-0.3 z"
       id="path379"
       inkscape:connector-curvature="0"
       style="fill:url(#SVGID_18_)" /><path
       d="m 162.5,198.7 c 0.2,0 0.4,-0.1 0.6,-0.1 -0.2,0 -0.4,0.1 -0.6,0.1 l 0,0 z"
       id="path381"
       inkscape:connector-curvature="0"
       style="fill:#be202e" /><path
       d="m 162.5,198.7 c 0.2,0 0.4,-0.1 0.6,-0.1 -0.2,0 -0.4,0.1 -0.6,0.1 l 0,0 z"
       id="path383"
       inkscape:connector-curvature="0"
       style="opacity:0.35;fill:#be202e" /><linearGradient
       id="SVGID_19_"
       gradientUnits="userSpaceOnUse"
       x1="-7995.7114"
       y1="-1101.7631"
       x2="-7651.9102"
       y2="-1101.7631"
       gradientTransform="matrix(0.4226,-0.9063,0.9063,0.4226,4442.6831,-6372.6807)"><stop
         offset="0.3233"
         style="stop-color:#9E2064"
         id="stop386" /><stop
         offset="0.6302"
         style="stop-color:#C92037"
         id="stop388" /><stop
         offset="0.7514"
         style="stop-color:#CD2335"
         id="stop390" /><stop
         offset="1"
         style="stop-color:#E97826"
         id="stop392" /></linearGradient><path
       d="m 162.5,198.7 c 0.2,0 0.4,-0.1 0.6,-0.1 -0.2,0 -0.4,0.1 -0.6,0.1 l 0,0 z"
       id="path394"
       inkscape:connector-curvature="0"
       style="fill:url(#SVGID_19_)" /><polygon
       points="162.5,198.7 162.5,198.7 162.5,198.7 162.5,198.7 162.5,198.7 "
       id="polygon396"
       style="fill:#be202e" /><polygon
       points="162.5,198.7 162.5,198.7 162.5,198.7 162.5,198.7 162.5,198.7 "
       id="polygon398"
       style="opacity:0.35;fill:#be202e" /><linearGradient
       id="SVGID_20_"
       gradientUnits="userSpaceOnUse"
       x1="-7802.5688"
       y1="-1102.006"
       x2="-7726.5776"
       y2="-1102.006"
       gradientTransform="matrix(0.4226,-0.9063,0.9063,0.4226,4442.6831,-6372.6807)"><stop
         offset="0.3233"
         style="stop-color:#9E2064"
         id="stop401" /><stop
         offset="0.6302"
         style="stop-color:#C92037"
         id="stop403" /><stop
         offset="0.7514"
         style="stop-color:#CD2335"
         id="stop405" /><stop
         offset="1"
         style="stop-color:#E97826"
         id="stop407" /></linearGradient><polygon
       points="162.5,198.7 162.5,198.7 162.5,198.7 162.5,198.7 162.5,198.7 "
       id="polygon409"
       style="fill:url(#SVGID_20_)" /></g><g
     id="g411"
     transform="matrix(0.53380721,0,0,0.53380721,-15.796507,260.85648)"><g
       id="g413"><path
         d="m 870.1,161.4 0,8.3 -2.3,0 0,-8.3 -2.9,0 0,-2 8.2,0 0,2 -3,0 z"
         id="path415"
         inkscape:connector-curvature="0"
         style="fill:#b0afb0" /><path
         d="m 884,163.2 -2.8,5.6 -1.4,0 -2.8,-5.6 0,6.5 -2.3,0 0,-10.3 3.1,0 2.7,5.7 2.7,-5.7 3.1,0 0,10.3 -2.3,0 0,-6.5 z"
         id="path417"
         inkscape:connector-curvature="0"
         style="fill:#b0afb0" /></g></g></svg>