<svg xmlns="http://www.w3.org/2000/svg" width="512" height="512" viewBox="0 0 512 512"><g fill="#008cdb"><path d="M295.375 273.719c-10.5 0-19.688 6.562-24.938 15.75H115.562c-26.25 0-47.25-22.312-47.25-48.562s21-48.562 47.25-48.562h22.312c0-5.25 2.625-10.5 3.938-15.75 1.312-1.312 1.312-3.938 2.625-5.25 10.5-19.688 31.5-32.812 55.125-32.812 21 0 39.375 10.5 51.188 26.25 6.562-2.625 13.125-5.25 21-6.562-14.438-24.938-40.688-40.688-72.188-40.688-35.438 0-65.625 22.313-78.75 53.813h-5.25C77.5 171.344 46 202.844 46 242.219s31.5 69.562 69.562 69.562H271.75c3.938 9.188 13.125 15.75 24.938 15.75 14.438 0 26.25-11.812 26.25-27.562s-11.813-26.25-27.563-26.25z"/><path d="M382 219.906c-15.75-31.5-48.562-53.812-85.312-53.812-45.938 0-84 32.812-93.188 76.125-22.312 2.625-42 14.437-53.812 31.5h114.188c7.875-10.5 19.688-15.75 32.812-15.75 23.625 0 42 19.688 42 43.312s-19.688 43.312-42 43.312c-13.125 0-24.938-6.562-32.812-15.75H136.562c5.25 36.75 36.75 65.625 73.5 65.625h170.625c47.25 0 85.312-38.062 85.312-86.625S427.938 221.219 382 219.906z"/></g></svg>