<?xml version="1.0" encoding="UTF-8" standalone="no"?>
<!-- Created with Inkscape (http://www.inkscape.org/) -->

<svg
   xmlns:dc="http://purl.org/dc/elements/1.1/"
   xmlns:cc="http://creativecommons.org/ns#"
   xmlns:rdf="http://www.w3.org/1999/02/22-rdf-syntax-ns#"
   xmlns:svg="http://www.w3.org/2000/svg"
   xmlns="http://www.w3.org/2000/svg"
   xmlns:sodipodi="http://sodipodi.sourceforge.net/DTD/sodipodi-0.dtd"
   xmlns:inkscape="http://www.inkscape.org/namespaces/inkscape"
   width="350"
   height="350"
   id="svg2"
   version="1.1"
   inkscape:version="0.91 r13725"
   sodipodi:docname="explorer_white.svg"
   inkscape:export-filename="/src/marketing/datalayer/logo/studio/studio.png"
   inkscape:export-xdpi="90"
   inkscape:export-ydpi="90">
  <defs
     id="defs4">
    <clipPath
       clipPathUnits="userSpaceOnUse"
       id="clipPath4223">
      <rect
         style="opacity:1;fill:#008080;fill-opacity:1;fill-rule:nonzero;stroke:#008080;stroke-width:1.41005433;stroke-miterlimit:4;stroke-dasharray:none;stroke-dashoffset:0;stroke-opacity:1"
         id="rect4225"
         width="24.730347"
         height="68.791412"
         x="518.79254"
         y="621.72852"
         rx="0.0029273594"
         ry="0.0029166499" />
    </clipPath>
  </defs>
  <sodipodi:namedview
     id="base"
     pagecolor="#ffffff"
     bordercolor="#666666"
     borderopacity="1.0"
     inkscape:pageopacity="0"
     inkscape:pageshadow="2"
     inkscape:zoom="1.0324544"
     inkscape:cx="-64.185932"
     inkscape:cy="96.741644"
     inkscape:document-units="px"
     inkscape:current-layer="layer1"
     showgrid="false"
     inkscape:object-paths="true"
     inkscape:snap-intersection-paths="true"
     inkscape:object-nodes="true"
     inkscape:snap-global="true"
     fit-margin-top="0"
     fit-margin-left="0"
     fit-margin-right="0"
     fit-margin-bottom="0"
     inkscape:window-width="1440"
     inkscape:window-height="819"
     inkscape:window-x="0"
     inkscape:window-y="24"
     inkscape:window-maximized="1">
    <inkscape:grid
       type="xygrid"
       id="grid3074"
       empspacing="5"
       visible="true"
       enabled="true"
       snapvisiblegridlinesonly="true" />
  </sodipodi:namedview>
  <metadata
     id="metadata7">
    <rdf:RDF>
      <cc:Work
         rdf:about="">
        <dc:format>image/svg+xml</dc:format>
        <dc:type
           rdf:resource="http://purl.org/dc/dcmitype/StillImage" />
        <dc:title></dc:title>
      </cc:Work>
    </rdf:RDF>
  </metadata>
  <g
     inkscape:label="Layer 1"
     inkscape:groupmode="layer"
     id="layer1"
     transform="translate(1794.876,538.79141)">
    <rect
       rx="428.04462"
       ry="428.04459"
       y="-537.30615"
       x="-1793.3879"
       height="347.02673"
       width="347.02673"
       id="rect5947-3"
       style="fill:none;fill-opacity:1;stroke:#ffffff;stroke-width:2.97600007;stroke-miterlimit:4;stroke-dasharray:none;stroke-opacity:1" />
    <path
       style="opacity:1;fill:#ffffff;fill-opacity:1;fill-rule:nonzero;stroke:none;stroke-width:6;stroke-linecap:round;stroke-linejoin:round;stroke-miterlimit:4;stroke-dasharray:none;stroke-dashoffset:0;stroke-opacity:1"
       d="m -1704.6169,-224.09953 c -3.9476,-0.65901 -6.7964,-2.91382 -8.643,-6.84115 l -0.8465,-1.80026 -0.2228,-56.17383 c -0.2177,-54.97734 0.2667,-57.98901 0.2667,-57.98901 l 19.0373,-0.13785 c 0.1078,0.90776 0.4912,52.12724 0.472,56.29875 -0.01,1.19226 0.079,1.85652 0.2363,1.85652 0.3192,0 23.6958,-16.82884 23.8035,-17.13628 0.045,-0.12937 2.3709,-13.36651 5.1979,-29.41093 4.2126,-23.90908 10.2525,-53.88037 7.6586,-39.60989 0.2363,0.0508 17.4089,0.11299 16.8986,7.52655 0.011,0.0113 -3.1239,20.26292 -4.6374,32.94907 -1.5135,12.6862 -2.7319,23.0903 -2.7075,23.12013 0.023,0.0282 8.286,-4.4559 8.286,-4.4559 l 0.212,21.34452 -56.6439,41.83228 -0.1128,14.26856 -0.1128,14.2685 -1.6877,0.13954 c -2.4001,0.1983 -5.0962,0.1774 -6.4549,-0.0508 z"
       id="path5795-6"
       inkscape:connector-curvature="0"
       sodipodi:nodetypes="cscscccscsccsccccccccc" />
    <circle
       cy="-446.4848"
       cx="-1619.9213"
       id="path5912-5"
       style="opacity:1;fill:#ffffff;fill-opacity:1;fill-rule:nonzero;stroke:#ffffff;stroke-width:8.44157314;stroke-linecap:round;stroke-linejoin:round;stroke-miterlimit:4;stroke-dasharray:none;stroke-dashoffset:0;stroke-opacity:1"
       r="78.757828" />
    <path
       inkscape:connector-curvature="0"
       id="path5919-3"
       d="m -1638.0614,-337.13095 0,40.41681"
       style="fill:none;fill-opacity:1;fill-rule:evenodd;stroke:#000000;stroke-width:1.33836472px;stroke-linecap:butt;stroke-linejoin:miter;stroke-opacity:0" />
    <path
       sodipodi:nodetypes="cscccccc"
       inkscape:connector-curvature="0"
       id="path4162-5"
       d="m -1713.4317,-350.22674 c 1.0933,-6.30638 2.9428,-10.84233 5.4498,-13.36566 2.315,-2.33006 5.9328,-2.62293 12.9425,-3.05947 l -0.056,12.76157 0.071,3.64068 -18.4096,0.0226 0,0 z"
       style="opacity:1;fill:#ffffff;fill-opacity:1;fill-rule:nonzero;stroke:#ffffff;stroke-width:0.20953739;stroke-miterlimit:4;stroke-dasharray:none;stroke-dashoffset:0;stroke-opacity:1" />
    <path
       inkscape:connector-curvature="0"
       id="path4164-6"
       d="m -1619.8664,-275.85927 c -0.865,-0.074 -2.1071,-0.41241 -3.3527,-0.91317 -1.0467,-0.42089 -1.0531,-0.42936 -7.0345,-9.37399 l -5.9868,-8.9527 -0.2515,-18.01206 c -0.1382,-9.90667 -0.2465,-19.33217 -0.2403,-20.9456 l 0.011,-2.93354 5.8083,-2.66299 c 6.8919,-3.1598 7.9398,-3.43171 12.5135,-3.24663 3.9786,0.16101 5.0163,0.45648 10.9591,3.12116 l 5.2843,2.36938 -0.1072,2.6192 c -0.059,1.44056 -0.2126,11.24695 -0.3417,21.7919 -0.1291,10.545 -0.3023,19.26697 -0.3852,19.38222 -0.083,0.11525 -2.7817,3.87909 -5.9978,8.36403 -5.6977,7.94591 -5.8758,8.16754 -6.9572,8.66266 -1.1312,0.51805 -2.7913,0.82697 -3.9217,0.73013 z"
       style="opacity:1;fill:#ffffff;fill-opacity:1;fill-rule:nonzero;stroke:#ffffff;stroke-width:0.41907477;stroke-miterlimit:4;stroke-dasharray:none;stroke-dashoffset:0;stroke-opacity:1" />
    <path
       style="fill:none;fill-opacity:1;fill-rule:evenodd;stroke:#000000;stroke-width:1.33836472px;stroke-linecap:butt;stroke-linejoin:miter;stroke-opacity:0"
       d="m -1601.688,-337.13095 0,40.41681"
       id="path4241-9"
       inkscape:connector-curvature="0" />
    <path
       style="opacity:1;fill:#ffffff;fill-opacity:1;fill-rule:nonzero;stroke:#ffffff;stroke-width:0.20953739;stroke-miterlimit:4;stroke-dasharray:none;stroke-dashoffset:0;stroke-opacity:1"
       d="m -1525.8902,-350.22674 c -1.0933,-6.30638 -2.9427,-10.84233 -5.4498,-13.36566 -2.315,-2.33006 -5.9328,-2.62293 -12.9425,-3.05947 l 0.056,12.76157 -0.071,3.64068 18.4096,0.0226 0,0 z"
       id="path4243-1"
       inkscape:connector-curvature="0"
       sodipodi:nodetypes="cscccccc" />
    <path
       sodipodi:nodetypes="cscscccscsccsccccccccc"
       inkscape:connector-curvature="0"
       id="path4219-2"
       d="m -1534.8883,-224.09953 c 3.9476,-0.65901 6.7964,-2.91382 8.643,-6.84115 l 0.8465,-1.80026 0.2228,-56.17383 c 0.2176,-54.97734 -0.2668,-57.98901 -0.2668,-57.98901 l -19.0373,-0.13785 c -0.1077,0.90776 -0.4911,52.12724 -0.4719,56.29875 0,1.19226 -0.079,1.85652 -0.2363,1.85652 -0.3192,0 -23.6958,-16.82884 -23.8036,-17.13628 -0.045,-0.12937 -2.3709,-13.36651 -5.1978,-29.41093 -4.2126,-23.90908 -10.2525,-53.88037 -7.6586,-39.60989 -0.2363,0.0508 -17.4089,0.11299 -16.8986,7.52655 -0.011,0.0113 3.1239,20.26292 4.6374,32.94907 1.5135,12.6862 2.7319,23.0903 2.7075,23.12013 -0.023,0.0282 -8.286,-4.4559 -8.286,-4.4559 l -0.212,21.34452 56.6439,41.83228 0.1128,14.26856 0.1128,14.2685 1.6877,0.13954 c 2.4001,0.1983 5.0962,0.1774 6.4549,-0.0508 z"
       style="opacity:1;fill:#ffffff;fill-opacity:1;fill-rule:nonzero;stroke:none;stroke-width:6;stroke-linecap:round;stroke-linejoin:round;stroke-miterlimit:4;stroke-dasharray:none;stroke-dashoffset:0;stroke-opacity:1" />
  </g>
</svg>
